<?xml version="1.0" encoding="UTF-8"?>
    <svg id="Layer_2" xmlns="http://www.w3.org/2000/svg" viewBox="0 0 438.48 447.44">
    <g id="Layer_1-2">
        <path
            d="M291.2,14c14.93,9.34,25.38,24.08,31.36,44.24,1.12,3.36,2.42,8.22,3.92,14.56,1.49,6.35,3.26,12.88,5.32,19.6,2.05,6.72,4.38,12.88,7,18.48,2.61,5.6,5.41,9.15,8.4,10.64,4.1,2.99,8.96,7.28,14.56,12.88,5.6,5.6,10.92,12.04,15.96,19.32,5.04,7.28,9.33,15.31,12.88,24.08,3.54,8.78,5.32,17.64,5.32,26.6,0,2.24-.47,6.54-1.4,12.88-.94,6.35-2.15,13.07-3.64,20.16-1.5,7.1-3.36,13.35-5.6,18.76-2.24,5.42-4.67,8.12-7.28,8.12-1.12,0-3.74-.28-7.84-.84-4.11-.56-8.78-1.12-14-1.68-5.23-.56-10.64-1.21-16.24-1.96-5.6-.74-10.46-1.3-14.56-1.68,2.61,.75,6.34,1.87,11.2,3.36,4.85,1.5,9.89,2.9,15.12,4.2,5.22,1.31,9.89,2.43,14,3.36,4.1,.94,6.53,1.4,7.28,1.4,10.45,0,19.78,3.74,28,11.2,8.21,7.47,15.12,16.62,20.72,27.44,5.6,10.83,9.8,22.22,12.6,34.16,2.8,11.95,4.2,22.4,4.2,31.36,0,10.83-1.87,20.72-5.6,29.68-3.74,8.96-8.87,16.62-15.4,22.96-6.54,6.35-14.19,11.3-22.96,14.84-8.78,3.55-18.39,5.32-28.84,5.32s-22.31-1.86-36.68-5.6c-14.38-3.73-28.19-9.42-41.44-17.08-13.26-7.65-24.64-17.26-34.16-28.84-9.52-11.57-14.28-25.2-14.28-40.88,0-4.1,.65-8.21,1.96-12.32,1.3-4.1,2.7-8.77,4.2-14-1.87,2.62-3.46,5.14-4.76,7.56-1.31,2.43-3.18,4.67-5.6,6.72-2.43,2.06-5.6,3.64-9.52,4.76-3.92,1.12-9.06,1.68-15.4,1.68-7.1,0-13.07-.84-17.92-2.52-4.86-1.68-8.78-3.82-11.76-6.44-2.99-2.61-5.32-5.41-7-8.4-1.68-2.98-2.71-5.78-3.08-8.4,.37,3.74,.56,7.66,.56,11.76v6.72c0,11.58-1.4,23.62-4.2,36.12-2.8,12.51-7.38,23.9-13.72,34.16-6.35,10.27-14.66,18.67-24.92,25.2-10.27,6.54-22.68,9.8-37.24,9.8-11.58,0-22.78-2.24-33.6-6.72-10.83-4.48-20.44-10.64-28.84-18.48-8.4-7.84-15.22-17.08-20.44-27.72-5.23-10.64-7.84-21.93-7.84-33.88,0-12.69,1.68-25.2,5.04-37.52,3.36-12.32,7.84-23.52,13.44-33.6,2.98-5.22,6.72-10.17,11.2-14.84,4.48-4.66,8.96-8.86,13.44-12.6,4.48-3.73,8.3-7,11.48-9.8,3.17-2.8,4.76-4.76,4.76-5.88-2.24-13.44-3.36-27.25-3.36-41.44,0-25.01,4.01-49.37,12.04-73.08,8.02-23.7,21.18-43.58,39.48-59.64,6.34-5.22,14.18-10.92,23.52-17.08,9.33-6.16,17.17-12.6,23.52-19.32,8.21-8.96,15.86-15.86,22.96-20.72,7.09-4.85,14-8.4,20.72-10.64,6.72-2.24,13.16-3.54,19.32-3.92,6.16-.37,12.41-.56,18.76-.56,21.65,0,39.94,4.67,54.88,14Zm-78.96,131.04c-1.12,6.35-2.24,12.6-3.36,18.76-1.12,6.16-2.06,12.04-2.8,17.64-.75,5.6-1.68,10.08-2.8,13.44-4.11,11.2-10.36,20.35-18.76,27.44-8.4,7.1-18.2,13.26-29.4,18.48,11.94-2.98,23.24-5.6,33.88-7.84,10.64-2.24,22.68-3.36,36.12-3.36,9.7,0,19.22,1.12,28.56,3.36,9.33,2.24,18.29,5.42,26.88,9.52-6.72-4.48-12.79-8.21-18.2-11.2-5.42-2.98-10.74-7.28-15.96-12.88-10.46-7.46-18.39-17.17-23.8-29.12-5.42-11.94-8.12-24.26-8.12-36.96,0-2.98,.18-6.62,.56-10.92,.37-4.29,.93-8.49,1.68-12.6-1.87,4.48-3.36,9.9-4.48,16.24Z" />
    </g>
    </svg>
</svg>