<?xml version="1.0" encoding="UTF-8"?><svg id="Layer_2" xmlns="http://www.w3.org/2000/svg" viewBox="0 0 376.88 458.64"><g id="Layer_1-2"><path d="M173.32,437.08c-7.66,4.3-16.06,8.03-25.2,11.2-9.15,3.17-18.2,5.69-27.16,7.56-8.96,1.86-16.43,2.8-22.4,2.8-14.94,0-28.47-3.46-40.6-10.36-12.14-6.9-22.5-15.77-31.08-26.6-8.59-10.82-15.22-22.77-19.88-35.84-4.67-13.06-7-25.94-7-38.64,0-17.17,1.58-31.54,4.76-43.12,3.17-11.57,6.62-20.81,10.36-27.72,3.73-6.9,7.18-12.13,10.36-15.68,3.17-3.54,4.76-6.25,4.76-8.12-6.35-5.6-11.11-13.62-14.28-24.08-3.18-10.45-4.76-20.16-4.76-29.12,0-2.61,.74-6.34,2.24-11.2,1.49-4.85,3.64-9.8,6.44-14.84,2.8-5.04,6.16-9.42,10.08-13.16,3.92-3.73,8.12-5.6,12.6-5.6-6.35-2.24-11.58-5.6-15.68-10.08-4.11-4.48-7.28-9.61-9.52-15.4-2.24-5.78-3.83-12.04-4.76-18.76-.94-6.72-1.4-13.25-1.4-19.6,0-12.32,2.42-23.98,7.28-35,4.85-11.01,11.38-20.62,19.6-28.84s17.82-14.74,28.84-19.6C77.93,2.43,89.6,0,101.92,0s22.12,2.52,29.4,7.56c7.28,5.04,12.88,10.46,16.8,16.24,3.92,5.79,6.72,11.2,8.4,16.24,1.68,5.04,3.08,7.56,4.2,7.56,1.49,0,4.48-2.05,8.96-6.16,4.48-4.1,10.26-8.58,17.36-13.44,7.09-4.85,15.4-9.33,24.92-13.44,9.52-4.1,20.06-6.16,31.64-6.16,13.44,0,26.41,2.52,38.92,7.56,12.5,5.04,23.42,12.04,32.76,21,9.33,8.96,16.8,19.51,22.4,31.64,5.6,12.14,8.4,25.11,8.4,38.92,0,6.35-1.12,14.56-3.36,24.64-2.24,10.08-5.42,19.98-9.52,29.68-4.11,9.71-9.24,18.3-15.4,25.76-6.16,7.47-13.35,11.76-21.56,12.88,10.08,2.99,19.88,7.94,29.4,14.84,9.52,6.91,18.1,15.12,25.76,24.64,7.65,9.52,13.81,19.7,18.48,30.52,4.66,10.83,7,21.66,7,32.48,0,16.43-2.8,33.14-8.4,50.12-5.6,16.99-13.54,32.58-23.8,46.76-10.27,14.19-22.59,25.76-36.96,34.72-14.38,8.96-30.34,13.44-47.88,13.44-5.98,0-12.88-1.3-20.72-3.92-7.84-2.61-15.31-5.5-22.4-8.68-7.1-3.17-15.68-7.37-25.76-12.6-4.11,5.23-9.99,9.99-17.64,14.28Zm-13.16-250.6c2.98-1.49,6.44-2.8,10.36-3.92,3.92-1.12,8.02-1.96,12.32-2.52,4.29-.56,8.12-1.02,11.48-1.4-8.59-2.61-15.12-6.34-19.6-11.2-4.48-4.85-7.84-10.36-10.08-16.52-2.24-6.16-3.74-12.5-4.48-19.04-.75-6.53-1.5-12.97-2.24-19.32-2.24,9.71-6.63,18.11-13.16,25.2-6.54,7.1-14.66,10.64-24.36,10.64,4.85,.75,9.42,2.8,13.72,6.16,4.29,3.36,7.84,7.28,10.64,11.76s5.04,9.06,6.72,13.72c1.68,4.67,2.52,8.68,2.52,12.04,1.12-2.24,3.17-4.1,6.16-5.6Zm-25.48,110.6c4.29,2.8,8.4,6.16,12.32,10.08,3.92,3.92,7.46,8.12,10.64,12.6,3.17,4.48,5.69,8.4,7.56,11.76,0-7.46,2.05-15.58,6.16-24.36,4.1-8.77,8.77-16.33,14-22.68-1.87,.38-3.46,.66-4.76,.84-1.31,.19-2.71,.28-4.2,.28-8.96,0-16.24-2.05-21.84-6.16-5.6-4.1-9.9-7.28-12.88-9.52-2.62,4.86-5.14,9.06-7.56,12.6-2.43,3.55-6.26,6.63-11.48,9.24,3.73,.75,7.74,2.52,12.04,5.32Z"/></g></svg>