<?xml version="1.0" encoding="UTF-8"?><svg id="Layer_2" xmlns="http://www.w3.org/2000/svg" viewBox="0 0 406.56 458.64"><g id="Layer_1-2"><path d="M249.76,176.68c-5.6,6.91-11.95,13.16-19.04,18.76-7.1,5.6-14.47,10.27-22.12,14-7.66,3.74-15.22,6.35-22.68,7.84,8.21,2.62,13.34,8.22,15.4,16.8,2.05,8.59,3.08,16.8,3.08,24.64,0,10.46-2.43,19.7-7.28,27.72-4.86,8.03-8.78,13.91-11.76,17.64,.37,0,2.33-.84,5.88-2.52,3.54-1.68,7.56-3.54,12.04-5.6,4.48-2.05,9.14-4.01,14-5.88,4.85-1.86,8.96-2.8,12.32-2.8,8.96,0,16.05,2.43,21.28,7.28,5.22,4.86,9.42,10.92,12.6,18.2,3.17,7.28,5.6,14.94,7.28,22.96,1.68,8.03,3.45,15.22,5.32,21.56,12.32-10.82,23.7-19.41,34.16-25.76,10.45-6.34,22.77-9.52,36.96-9.52,13.06,0,23.52,2.43,31.36,7.28,7.84,4.86,13.81,10.36,17.92,16.52,4.1,6.16,6.81,12.23,8.12,18.2,1.3,5.98,1.96,10.08,1.96,12.32,0,11.95-2.62,22.4-7.84,31.36-5.23,8.96-11.95,16.43-20.16,22.4-8.22,5.98-17.46,10.46-27.72,13.44-10.27,2.99-20.44,4.48-30.52,4.48s-19.32-1.02-26.6-3.08c-7.28-2.05-15.22-5.5-23.8-10.36-5.23,11.2-13.54,18.01-24.92,20.44-11.39,2.42-23.43,3.64-36.12,3.64-8.59,0-17.83-1.03-27.72-3.08-9.9-2.06-19.14-5.14-27.72-9.24-8.59-4.1-15.87-9.52-21.84-16.24-5.98-6.72-8.96-14.56-8.96-23.52,0-5.6,1.12-11.76,3.36-18.48-17.55-5.22-33.98-12.13-49.28-20.72-15.31-8.58-28.66-18.85-40.04-30.8-11.39-11.94-20.35-25.94-26.88-42C3.26,278.51,0,260.4,0,240.24c0-17.54,1.4-33.32,4.2-47.32,2.8-14,7.37-26.69,13.72-38.08,6.34-11.38,14.84-21.56,25.48-30.52,10.64-8.96,23.61-16.98,38.92-24.08-.38-1.86-.66-3.64-.84-5.32-.19-1.68-.28-3.45-.28-5.32,0-11.94,3.08-23.33,9.24-34.16,6.16-10.82,14.09-20.34,23.8-28.56,9.7-8.21,20.44-14.74,32.2-19.6,11.76-4.85,23.24-7.28,34.44-7.28s21.18,1.31,29.96,3.92c8.77,2.62,16.14,5.51,22.12,8.68,5.97,3.18,10.64,6.07,14,8.68,3.36,2.62,5.6,3.92,6.72,3.92,.74,0,3.54-.93,8.4-2.8,4.85-1.86,10.64-3.82,17.36-5.88,6.72-2.05,13.72-4.01,21-5.88,7.28-1.86,13.72-2.8,19.32-2.8,8.96,0,18.38,1.5,28.28,4.48,9.89,2.99,19.04,7.28,27.44,12.88,8.4,5.6,15.4,12.42,21,20.44,5.6,8.03,8.4,17.27,8.4,27.72,0,11.58-2.34,23.24-7,35-4.67,11.76-11.11,22.4-19.32,31.92-8.22,9.52-18.02,17.27-29.4,23.24-11.39,5.98-23.99,8.96-37.8,8.96-6.35,0-13.26-.84-20.72-2.52-7.47-1.68-16.62-6.62-27.44-14.84-3.36,7.47-7.84,14.66-13.44,21.56Z"/></g></svg>