<?xml version="1.0" encoding="UTF-8"?><svg id="Layer_2" xmlns="http://www.w3.org/2000/svg" viewBox="0 0 431.2 448"><g id="Layer_1-2"><path d="M246.12,414.12c-4.67,6.54-10.18,12.32-16.52,17.36-6.35,5.04-13.16,9.06-20.44,12.04-7.28,2.99-14.84,4.48-22.68,4.48-11.95,0-23.99-2.89-36.12-8.68-12.14-5.78-22.5-12.6-31.08-20.44-2.99,8.96-9.06,16.06-18.2,21.28-9.15,5.23-18.58,7.84-28.28,7.84-10.46,0-20.07-2.42-28.84-7.28-8.78-4.85-16.43-11.2-22.96-19.04-6.54-7.84-11.67-16.8-15.4-26.88-3.74-10.08-5.6-20.53-5.6-31.36,0-10.08,1.49-20.53,4.48-31.36,2.98-10.82,7.09-21.37,12.32-31.64,5.22-10.26,11.38-19.97,18.48-29.12,7.09-9.14,14.74-17.08,22.96-23.8-5.6-4.85-11.11-10.17-16.52-15.96-5.42-5.78-10.27-11.94-14.56-18.48-4.3-6.53-7.75-13.53-10.36-21-2.62-7.46-3.92-15.3-3.92-23.52s1.21-15.86,3.64-24.08c2.42-8.21,5.22-15.68,8.4-22.4,3.17-6.72,5.97-12.5,8.4-17.36,2.42-4.85,3.64-7.84,3.64-8.96-2.24-2.24-4.39-4.1-6.44-5.6-2.06-1.49-3.92-3.36-5.6-5.6-1.68-2.24-3.08-5.32-4.2-9.24-1.12-3.92-1.68-9.42-1.68-16.52,0-9.7,2.14-18.2,6.44-25.48,4.29-7.28,9.8-13.44,16.52-18.48,6.72-5.04,14.37-8.77,22.96-11.2,8.58-2.42,17.36-3.64,26.32-3.64,5.97,0,12.32,.56,19.04,1.68,6.72,1.12,13.16,2.9,19.32,5.32,6.16,2.43,11.85,5.6,17.08,9.52,5.22,3.92,9.33,8.68,12.32,14.28,1.49-1.49,4.01-3.54,7.56-6.16,3.54-2.61,8.12-5.22,13.72-7.84,5.6-2.61,12.41-4.76,20.44-6.44,8.02-1.68,17.26-2.52,27.72-2.52,13.81,0,28.18,2.9,43.12,8.68,14.93,5.79,28.65,13.72,41.16,23.8,12.5,10.08,22.77,21.75,30.8,35,8.02,13.26,12.04,27.35,12.04,42.28,9.7,0,19.13,3.46,28.28,10.36,9.14,6.91,17.17,15.96,24.08,27.16,6.9,11.2,12.5,23.62,16.8,37.24,4.29,13.63,6.44,27.16,6.44,40.6,0,22.4-4.48,43.4-13.44,63s-21,36.78-36.12,51.52c-15.12,14.75-32.67,26.42-52.64,35-19.98,8.59-41.16,12.88-63.56,12.88-4.11,0-6.91-.56-8.4-1.68-2.62,7.1-6.26,13.91-10.92,20.44Zm-37.8-233.8c-2.99,8.59-7.28,16.52-12.88,23.8-5.6,7.28-12.23,13.44-19.88,18.48-7.66,5.04-16.15,8.12-25.48,9.24,6.34,2.99,11.48,8.03,15.4,15.12,3.92,7.1,5.88,13.63,5.88,19.6,0,2.62-.1,5.7-.28,9.24-.19,3.55-.47,7-.84,10.36-.38,3.36-.94,6.44-1.68,9.24-.75,2.8-1.87,4.95-3.36,6.44,8.58-6.34,16.7-11.48,24.36-15.4,7.65-3.92,17.26-7.37,28.84-10.36-3.36-1.86-6.91-4.38-10.64-7.56-3.74-3.17-5.6-7-5.6-11.48,0-8.21,1.49-16.42,4.48-24.64,2.98-8.21,7.09-15.68,12.32-22.4,5.22-6.72,11.1-12.5,17.64-17.36,6.53-4.85,13.53-8.21,21-10.08-5.98,0-11.67-.93-17.08-2.8-5.42-1.86-10.08-4.2-14-7-3.92-2.8-7-5.78-9.24-8.96-2.24-3.17-3.36-6.44-3.36-9.8h-1.12c0,8.96-1.5,17.74-4.48,26.32Z"/></g></svg>