<?xml version="1.0" encoding="UTF-8"?><svg id="Layer_2" xmlns="http://www.w3.org/2000/svg" viewBox="0 0 329.84 448"><g id="Layer_1-2"><path d="M277.2,5.04c9.33,3.36,17.92,8.03,25.76,14,7.84,5.98,14.28,13.07,19.32,21.28,5.04,8.22,7.56,16.99,7.56,26.32,0,19.79-5.42,38.18-16.24,55.16-10.83,16.99-25.58,28.66-44.24,35-8.59,2.99-16.34,5.04-23.24,6.16-6.91,1.12-13.16,1.68-18.76,1.68-9.71,0-17.74-1.21-24.08-3.64-6.35-2.42-11.76-5.32-16.24-8.68-4.48-3.36-8.31-6.72-11.48-10.08-3.18-3.36-6.44-5.78-9.8-7.28,2.24,4.86,5.04,9.15,8.4,12.88,3.36,3.74,7,7,10.92,9.8,3.92,2.8,7.74,5.23,11.48,7.28,3.73,2.06,7.09,3.83,10.08,5.32-1.87,2.24-3.36,3.92-4.48,5.04-1.12,1.12-3.18,3.36-6.16,6.72,5.22-3.73,11.01-6.53,17.36-8.4,6.34-1.86,12.6-3.26,18.76-4.2,6.16-.93,11.66-1.49,16.52-1.68,4.85-.18,8.4-.28,10.64-.28,6.72,0,13.16,1.22,19.32,3.64,6.16,2.43,11.66,5.6,16.52,9.52,4.85,3.92,8.77,8.68,11.76,14.28,2.98,5.6,4.48,11.39,4.48,17.36,0,22.4-6.91,39.2-20.72,50.4-13.82,11.2-31.18,16.8-52.08,16.8-8.22,0-17.08-.74-26.6-2.24-9.52-1.49-17.08-2.61-22.68-3.36,1.49,1.5,4.1,2.99,7.84,4.48,3.73,1.5,11.57,3.55,23.52,6.16-4.86,2.99-9.71,5.7-14.56,8.12-4.86,2.43-8.78,5.88-11.76,10.36,9.7-5.22,20.25-9.61,31.64-13.16,11.38-3.54,24.17-5.32,38.36-5.32,10.45,0,19.78,2.99,28,8.96,8.21,5.98,15.12,13.26,20.72,21.84,5.6,8.59,9.8,17.92,12.6,28,2.8,10.08,4.2,19.23,4.2,27.44s-1.31,16.24-3.92,25.2c-2.62,8.96-6.72,17.36-12.32,25.2-5.6,7.84-12.88,14.28-21.84,19.32s-19.79,7.56-32.48,7.56c-10.08,0-18.67-.46-25.76-1.4-7.1-.93-13.07-2.24-17.92-3.92-4.86-1.68-8.87-3.64-12.04-5.88-3.18-2.24-5.88-4.66-8.12-7.28-3.74-3.73-7.28-7.46-10.64-11.2-3.36-3.73-8.22-6.9-14.56-9.52-11.95,13.82-26.04,23.8-42.28,29.96-16.24,6.16-33.32,9.24-51.24,9.24-8.96,0-17.64-1.68-26.04-5.04-8.4-3.36-15.78-8.02-22.12-14-6.35-5.97-11.39-13.06-15.12-21.28-3.74-8.21-5.6-16.98-5.6-26.32,0-13.06,2.33-25.48,7-37.24,4.66-11.76,11.29-22.68,19.88-32.76-10.83-13.06-19.32-26.5-25.48-40.32-6.16-13.81-9.24-29.49-9.24-47.04,0-7.09,.56-15.12,1.68-24.08s2.61-17.92,4.48-26.88c1.86-8.96,4.29-17.54,7.28-25.76,2.98-8.21,6.34-14.93,10.08-20.16-4.48-6.72-8.22-14-11.2-21.84-2.99-7.84-4.48-15.3-4.48-22.4,0-10.45,1.4-20.72,4.2-30.8s7.18-18.94,13.16-26.6c5.97-7.65,13.44-13.81,22.4-18.48C56.56,2.34,67.2,0,79.52,0c5.22,0,10.08,1.12,14.56,3.36,4.48,2.24,8.77,4.95,12.88,8.12,4.1,3.18,8.02,6.63,11.76,10.36,3.73,3.74,7.46,6.91,11.2,9.52,5.97-5.22,12.6-9.89,19.88-14,7.28-4.1,15.21-6.16,23.8-6.16,5.22,0,9.89,1.68,14,5.04,4.1,3.36,7.65,5.98,10.64,7.84,4.85-8.58,12.69-14.74,23.52-18.48,10.82-3.73,20.53-5.6,29.12-5.6s16.98,1.68,26.32,5.04Z"/></g></svg>