<?xml version="1.0" encoding="UTF-8"?><svg id="Layer_2" xmlns="http://www.w3.org/2000/svg" viewBox="0 0 325.36 458.64"><g id="Layer_1-2"><path d="M223.44,315c.37,3.92,.74,7.94,1.12,12.04,0,16.06-2.62,30.52-7.84,43.4-5.23,12.88-11.95,24.18-20.16,33.88-8.22,9.71-17.36,18.02-27.44,24.92-10.08,6.91-19.79,12.51-29.12,16.8-9.34,4.29-17.92,7.46-25.76,9.52-7.84,2.05-13.44,3.08-16.8,3.08-12.7,0-23.99-3.08-33.88-9.24-9.9-6.16-18.39-14.18-25.48-24.08-7.1-9.89-13.07-21.18-17.92-33.88-4.86-12.69-8.78-25.57-11.76-38.64-2.99-13.06-5.14-25.66-6.44-37.8-1.31-12.13-1.96-22.86-1.96-32.2,0-17.92,3.73-35.93,11.2-54.04,7.46-18.1,15.86-33.88,25.2-47.32-7.47-9.7-12.98-19.04-16.52-28-3.55-8.96-5.32-19.41-5.32-31.36,0-19.78,5.32-37.33,15.96-52.64,10.64-15.3,23.89-28.09,39.76-38.36,15.86-10.26,33.13-18.01,51.8-23.24C140.74,2.62,158.29,0,174.72,0c4.85,0,11.94,.66,21.28,1.96,9.33,1.31,19.6,3.46,30.8,6.44,11.2,2.99,22.68,6.91,34.44,11.76,11.76,4.86,22.4,11.02,31.92,18.48,9.52,7.47,17.26,16.24,23.24,26.32,5.97,10.08,8.96,21.84,8.96,35.28,0,15.31-3.64,29.12-10.92,41.44-7.28,12.32-17.46,22.22-30.52,29.68-9.71-6.72-19.88-12.22-30.52-16.52-10.64-4.29-21.94-6.44-33.88-6.44-10.83,0-20.26,1.5-28.28,4.48-8.03,2.99-15.4,6.35-22.12,10.08-2.62-1.49-5.42-3.73-8.4-6.72-2.99-2.98-5.79-5.97-8.4-8.96-2.99,2.99-5.04,7.38-6.16,13.16-1.12,5.79-1.68,10.36-1.68,13.72,0,.75,.09,2.43,.28,5.04,.18,2.62,1.21,5.79,3.08,9.52,10.82-7.46,21.46-14.46,31.92-21,10.45-6.53,22.96-9.8,37.52-9.8,10.82,0,21.18,1.4,31.08,4.2,9.89,2.8,18.57,7.19,26.04,13.16,7.46,5.98,13.44,13.54,17.92,22.68,4.48,9.15,6.72,20.26,6.72,33.32,0,10.83-2.24,20.26-6.72,28.28-4.48,8.03-10.36,14.66-17.64,19.88-7.28,5.23-15.59,9.06-24.92,11.48-9.34,2.43-19.04,3.64-29.12,3.64-16.43,0-31.64-3.36-45.64-10.08s-26.23-15.49-36.68-26.32c4.85,8.59,10.36,15.59,16.52,21,6.16,5.42,12.88,9.71,20.16,12.88,7.28,3.18,14.93,5.51,22.96,7,8.02,1.5,15.96,2.8,23.8,3.92,.74,4.11,1.3,8.12,1.68,12.04Z"/></g></svg>