<?xml version="1.0" encoding="UTF-8"?><svg id="Layer_2" xmlns="http://www.w3.org/2000/svg" viewBox="0 0 442.96 458.64"><g id="Layer_1-2"><path d="M380.24,322c4.48,8.96,6.72,18.86,6.72,29.68,0,13.07-3.46,25.76-10.36,38.08-6.91,12.32-14.84,22.59-23.8,30.8-13.44,10.08-28.19,18.95-44.24,26.6-16.06,7.65-32.48,11.48-49.28,11.48-5.23,0-11.11-1.12-17.64-3.36-6.54-2.24-12.79-5.42-18.76-9.52-5.98-4.1-11.39-8.96-16.24-14.56-4.86-5.6-8.4-11.76-10.64-18.48-8.22,8.22-17.27,13.44-27.16,15.68-9.9,2.24-20.07,3.36-30.52,3.36-14.94,0-28.75-3.54-41.44-10.64-12.7-7.09-24.18-16.42-34.44-28-10.27-11.57-19.32-24.82-27.16-39.76-7.84-14.93-14.38-30.42-19.6-46.48-5.23-16.05-9.15-31.92-11.76-47.6-2.62-15.68-3.92-30.05-3.92-43.12,0-19.04,3.08-37.42,9.24-55.16,6.16-17.73,14.37-33.41,24.64-47.04,10.26-13.62,21.93-24.54,35-32.76,13.06-8.21,26.32-12.32,39.76-12.32,4.1,0,8.58,.75,13.44,2.24,4.85,1.5,8.77,3.55,11.76,6.16-1.12-2.98-2.9-5.5-5.32-7.56-2.43-2.05-5.14-3.73-8.12-5.04-2.99-1.3-6.07-2.33-9.24-3.08-3.18-.74-6.07-1.12-8.68-1.12,1.49-7.09,6.44-14.18,14.84-21.28,8.4-7.09,18.66-13.53,30.8-19.32,12.13-5.78,25.38-10.54,39.76-14.28,14.37-3.73,28.28-5.6,41.72-5.6,17.17,0,34.25,2.43,51.24,7.28,16.98,4.86,32.29,12.23,45.92,22.12,13.62,9.9,24.64,22.03,33.04,36.4,8.4,14.38,12.6,31.08,12.6,50.12,0,4.48-2.52,8.78-7.56,12.88-5.04,4.11-11.11,8.03-18.2,11.76-7.1,3.74-14.47,7-22.12,9.8-7.66,2.8-14.1,4.95-19.32,6.44-14.56,0-28.56,2.9-42,8.68-13.44,5.79-25.95,12.42-37.52,19.88-3.36,1.12-6.91,1.68-10.64,1.68-5.98,0-11.67-1.49-17.08-4.48-5.42-2.98-10.92-5.97-16.52-8.96,1.49,4.48,2.89,9.9,4.2,16.24,1.3,6.35,2.42,12.32,3.36,17.92,.93,5.6,1.58,10.55,1.96,14.84,.37,4.3,.56,6.63,.56,7,0,5.98-.19,12.88-.56,20.72-.38,7.84-1.12,15.78-2.24,23.8-1.12,8.03-2.99,15.68-5.6,22.96-2.62,7.28-6.16,13.35-10.64,18.2,9.33-3.73,18.1-5.6,26.32-5.6,4.85,0,9.42,.47,13.72,1.4,4.29,.94,8.77,1.96,13.44,3.08,4.66,1.12,9.7,2.34,15.12,3.64,5.41,1.31,11.85,2.34,19.32,3.08-7.47-2.61-14.94-6.16-22.4-10.64-7.47-4.48-14.1-9.61-19.88-15.4-5.79-5.78-10.55-12.32-14.28-19.6-3.74-7.28-5.6-15.4-5.6-24.36,0-15.68,4.2-29.02,12.6-40.04,8.4-11.01,18.85-20.06,31.36-27.16,12.5-7.09,25.94-12.32,40.32-15.68,14.37-3.36,27.34-5.04,38.92-5.04,12.69,0,26.22,1.59,40.6,4.76,14.37,3.18,27.53,8.22,39.48,15.12,11.94,6.91,21.84,16.15,29.68,27.72,7.84,11.58,11.76,25.76,11.76,42.56,0,7.84-1.31,15.4-3.92,22.68-2.62,7.28-6.26,13.91-10.92,19.88-4.67,5.98-10.27,10.74-16.8,14.28-6.54,3.55-13.54,5.32-21,5.32-4.48,0-7.94-1.4-10.36-4.2-2.43-2.8-7.19-7.18-14.28-13.16,5.22,7.1,10.08,15.12,14.56,24.08Z"/></g></svg>