<?xml version="1.0" encoding="UTF-8"?><svg id="Layer_2" xmlns="http://www.w3.org/2000/svg" viewBox="0 0 396.48 450.8"><g id="Layer_1-2"><path d="M14,264.04c-6.72-8.02-10.08-20.62-10.08-37.8,0-7.84,1.02-14.18,3.08-19.04,2.05-4.85,4.94-9.33,8.68-13.44,3.73-4.1,8.3-8.21,13.72-12.32,5.41-4.1,11.66-9.14,18.76-15.12-7.47-3.73-13.82-8.86-19.04-15.4-5.23-6.53-9.43-13.53-12.6-21-3.18-7.46-5.51-15.4-7-23.8-1.5-8.4-2.24-16.52-2.24-24.36,0-11.57,2.14-22.4,6.44-32.48,4.29-10.08,10.17-18.76,17.64-26.04,7.46-7.28,16.24-12.97,26.32-17.08C67.76,2.06,78.58,0,90.16,0c15.3,0,29.12,3.08,41.44,9.24,12.32,6.16,22.86,14.38,31.64,24.64,8.77,10.27,15.49,22.12,20.16,35.56,4.66,13.44,7,27.44,7,42,0,10.46-2.71,19.6-8.12,27.44-5.42,7.84-13.16,13.26-23.24,16.24,6.72-1.12,12.13-1.86,16.24-2.24,4.1-.37,9.33-.56,15.68-.56,2.98,0,7,.19,12.04,.56,5.04,.38,9.05,.75,12.04,1.12-7.84-2.61-13.07-5.41-15.68-8.4-2.62-2.98-3.92-6.53-3.92-10.64s.56-8.12,1.68-12.04c1.12-3.92,1.68-8.3,1.68-13.16,0-5.22-.47-10.73-1.4-16.52-.94-5.78-1.4-11.48-1.4-17.08,0-11.94,2.05-22.58,6.16-31.92,4.1-9.33,9.89-17.26,17.36-23.8,7.46-6.53,16.33-11.57,26.6-15.12,10.26-3.54,21.56-5.32,33.88-5.32,14.56,0,28,3.27,40.32,9.8,12.32,6.54,22.86,15.12,31.64,25.76,8.77,10.64,15.58,22.68,20.44,36.12,4.85,13.44,7.28,27.07,7.28,40.88,0,10.83-1.4,22.22-4.2,34.16-2.8,11.95-6.16,23.34-10.08,34.16-3.92,10.83-8.12,20.26-12.6,28.28-4.48,8.03-8.59,13.16-12.32,15.4,17.17,14.19,30.8,29.03,40.88,44.52,10.08,15.5,15.12,34.82,15.12,57.96,0,13.44-2.62,26.98-7.84,40.6-5.23,13.63-12.23,25.76-21,36.4-8.78,10.64-19.14,19.32-31.08,26.04-11.95,6.72-24.64,10.08-38.08,10.08-8.59,0-18.39-1.86-29.4-5.6-11.02-3.73-21.38-9.14-31.08-16.24-9.71-7.09-18.02-15.77-24.92-26.04-6.91-10.26-10.36-21.93-10.36-35,0-17.54,2.33-34.9,7-52.08,4.66-17.17,14.09-36.4,28.28-57.68-6.72,4.86-13.35,8.31-19.88,10.36-6.54,2.06-14.84,3.08-24.92,3.08-9.34,0-17.55-.93-24.64-2.8-7.1-1.86-14.38-4.66-21.84-8.4,1.86,5.23,5.32,10.27,10.36,15.12,5.04,4.86,10.36,9.71,15.96,14.56,7.84,7.47,13.53,15.87,17.08,25.2,3.54,9.34,5.32,19.04,5.32,29.12,0,16.8-3.18,32.39-9.52,46.76-6.35,14.38-14.75,26.7-25.2,36.96-10.46,10.27-22.5,18.39-36.12,24.36-13.63,5.97-27.91,8.96-42.84,8.96-10.08,0-19.98-2.9-29.68-8.68-9.71-5.78-18.39-13.34-26.04-22.68-7.66-9.33-13.91-19.6-18.76-30.8-4.86-11.2-7.28-22.21-7.28-33.04,1.12-18.66,6.16-33.6,15.12-44.8,8.96-11.2,19.97-20.72,33.04-28.56-16.06-4.1-27.44-10.17-34.16-18.2Z"/></g></svg>