<?xml version="1.0" encoding="UTF-8"?><svg id="Layer_2" xmlns="http://www.w3.org/2000/svg" viewBox="0 0 200.48 458.64"><g id="Layer_1-2"><path d="M26.32,113.12c-5.23-8.21-7.84-17.17-7.84-26.88,0-6.34,1.49-11.94,4.48-16.8,2.98-4.85,6.81-8.96,11.48-12.32,4.66-3.36,9.8-5.97,15.4-7.84,5.6-1.86,11.01-2.8,16.24-2.8-6.35-7.84-9.52-15.3-9.52-22.4,0-4.1,1.12-7.65,3.36-10.64,2.24-2.98,4.94-5.5,8.12-7.56,3.17-2.05,6.62-3.54,10.36-4.48,3.73-.93,7.28-1.4,10.64-1.4,10.82,0,19.13,3.92,24.92,11.76,5.78,7.84,8.68,15.68,8.68,23.52,13.81,1.87,24.26,7.56,31.36,17.08,7.09,9.52,10.64,19.7,10.64,30.52,0,9.71-3.08,18.48-9.24,26.32-6.16,7.84-15.78,11.76-28.84,11.76,1.49,2.99,3.73,7.66,6.72,14,2.98,6.35,5.97,13.16,8.96,20.44,2.98,7.28,5.6,14.47,7.84,21.56,2.24,7.1,3.36,12.88,3.36,17.36,0,4.11-.28,8.68-.84,13.72s-1.68,9.99-3.36,14.84c-1.68,4.86-3.92,9.06-6.72,12.6-2.8,3.55-6.44,5.7-10.92,6.44,9.33,7.47,18.2,15.96,26.6,25.48s15.77,19.7,22.12,30.52c6.34,10.83,11.29,22.03,14.84,33.6,3.54,11.58,5.32,23.34,5.32,35.28s-2.52,23.43-7.56,34.44c-5.04,11.02-12.32,20.72-21.84,29.12-9.52,8.4-21.19,15.22-35,20.44-13.82,5.22-29.68,7.84-47.6,7.84-14.56,0-27.35-2.71-38.36-8.12-11.02-5.41-20.26-12.6-27.72-21.56-7.47-8.96-13.07-19.22-16.8-30.8-3.74-11.57-5.6-23.7-5.6-36.4,0-16.8,2.33-31.36,7-43.68,4.66-12.32,10.26-22.49,16.8-30.52,6.53-8.02,13.44-14,20.72-17.92s13.53-5.88,18.76-5.88c-7.47-5.97-14.19-14.09-20.16-24.36-5.98-10.26-8.96-20.81-8.96-31.64,0-6.34,.65-13.25,1.96-20.72,1.3-7.46,2.89-14.74,4.76-21.84,1.86-7.09,3.82-13.72,5.88-19.88,2.05-6.16,3.82-11.29,5.32-15.4-11.95-2.98-20.54-8.58-25.76-16.8Z"/></g></svg>