<?xml version="1.0" encoding="UTF-8"?><svg id="Layer_2" xmlns="http://www.w3.org/2000/svg" viewBox="0 0 403.2 458.64"><g id="Layer_1-2"><path d="M285.6,210.56c5.6,8.22,10.45,16.8,14.56,25.76,4.1,8.96,7.37,18.58,9.8,28.84,2.42,10.27,3.64,21.56,3.64,33.88,0,21.28-4.3,40.98-12.88,59.08-8.59,18.11-18.95,33.79-31.08,47.04-12.14,13.26-24.92,23.71-38.36,31.36-13.44,7.66-25.2,11.48-35.28,11.48-6.72,0-13.63-.46-20.72-1.4-7.1-.93-14-2.52-20.72-4.76-6.72-2.24-12.88-5.13-18.48-8.68-5.6-3.54-10.27-7.93-14-13.16-1.5,1.5-3.55,4.3-6.16,8.4-2.62,4.11-6.07,8.4-10.36,12.88-4.3,4.48-9.34,8.49-15.12,12.04-5.79,3.54-12.6,5.32-20.44,5.32-20.91,0-37.8-7.84-50.68-23.52C6.44,419.44,0,396.67,0,366.8c0-13.06,2.14-25.85,6.44-38.36,4.29-12.5,10.64-23.61,19.04-33.32,8.4-9.7,18.57-17.45,30.52-23.24,11.94-5.78,25.57-8.68,40.88-8.68,8.96,0,16.42,1.12,22.4,3.36,5.97,2.24,10.92,5.04,14.84,8.4s7,7.19,9.24,11.48c2.24,4.3,4.29,8.31,6.16,12.04-2.99-8.96-4.67-17.92-5.04-26.88-.38-8.96-.56-18.48-.56-28.56,0-13.06,2.8-26.04,8.4-38.92s14.18-22.86,25.76-29.96c-11.2-.74-24.08-3.92-38.64-9.52-14.56-5.6-28.28-12.97-41.16-22.12-12.88-9.14-23.71-19.78-32.48-31.92-8.78-12.13-13.16-25.1-13.16-38.92,0-11.57,2.42-21.74,7.28-30.52,4.85-8.77,11.29-16.24,19.32-22.4,8.02-6.16,17.17-10.82,27.44-14,10.26-3.17,20.81-4.76,31.64-4.76,13.44,0,26.97,1.87,40.6,5.6,13.62,3.74,26.22,9.24,37.8,16.52,11.57,7.28,21.28,16.52,29.12,27.72,7.84,11.2,12.5,24.27,14,39.2,1.12-3.73,1.68-7.46,1.68-11.2,0-6.72-1.12-12.5-3.36-17.36-2.24-4.85-3.92-8.77-5.04-11.76,8.58-10.45,18.76-19.88,30.52-28.28,11.76-8.4,24.54-12.6,38.36-12.6,11.57,0,22.3,2.62,32.2,7.84,9.89,5.23,18.48,12.23,25.76,21,7.28,8.78,12.97,18.95,17.08,30.52,4.1,11.58,6.16,23.9,6.16,36.96s-3.27,25.58-9.8,36.4c-6.54,10.83-14.94,20.16-25.2,28-10.27,7.84-21.75,13.82-34.44,17.92-12.7,4.11-25.39,6.16-38.08,6.16-5.23,0-10.18-.74-14.84-2.24-4.67-1.49-9.24-3.17-13.72-5.04,6.72,8.59,12.88,16.99,18.48,25.2Z"/></g></svg>