<?xml version="1.0" encoding="UTF-8"?><svg id="Layer_2" xmlns="http://www.w3.org/2000/svg" viewBox="0 0 399.84 448"><g id="Layer_1-2"><path d="M149.24,136.92c3.17-4.29,6.81-8.12,10.92-11.48,4.1-3.36,8.77-6.16,14-8.4,5.22-2.24,11.01-3.36,17.36-3.36,3.73,0,6.62,.19,8.68,.56,2.05,.38,4.57,1.5,7.56,3.36-2.99-5.22-5.79-10.82-8.4-16.8-2.62-5.97-3.92-12.32-3.92-19.04,0-11.57,3.45-22.3,10.36-32.2,6.9-9.89,15.49-18.48,25.76-25.76,10.26-7.28,21.28-13.06,33.04-17.36,11.76-4.29,22.49-6.44,32.2-6.44,8.21,0,17.17,.75,26.88,2.24,9.7,1.5,18.85,4.3,27.44,8.4,8.58,4.11,15.77,9.71,21.56,16.8,5.78,7.1,8.68,16.06,8.68,26.88,0,11.58-1.78,23.8-5.32,36.68-3.55,12.88-8.87,24.83-15.96,35.84-7.1,11.02-15.87,20.07-26.32,27.16-10.46,7.1-22.59,10.64-36.4,10.64-3.74,0-7.1-.18-10.08-.56-2.99-.37-6.54-2.05-10.64-5.04,2.61,5.6,3.92,13.63,3.92,24.08,0,6.72-2.34,12.6-7,17.64-4.67,5.04-10.18,9.62-16.52,13.72-6.35,4.11-12.98,7.75-19.88,10.92-6.91,3.18-12.79,5.88-17.64,8.12,13.81,1.12,25.2,4.58,34.16,10.36,8.96,5.79,13.62,15.22,14,28.28,3.36-1.49,6.25-2.8,8.68-3.92,2.42-1.12,5.22-2.14,8.4-3.08,3.17-.93,6.25-1.4,9.24-1.4,12.69,0,25.38,3.18,38.08,9.52,12.69,6.35,24.08,14.66,34.16,24.92,10.08,10.27,18.2,21.75,24.36,34.44,6.16,12.7,9.24,25.39,9.24,38.08,0,25.02-8.22,44.15-24.64,57.4-16.43,13.26-39.76,19.88-70,19.88-7.84,0-16.34-1.68-25.48-5.04-9.15-3.36-17.74-7.65-25.76-12.88-8.03-5.22-14.75-11.01-20.16-17.36-5.42-6.34-8.12-12.5-8.12-18.48,0-4.1,.37-8.02,1.12-11.76,.74-3.73,2.05-8.02,3.92-12.88-3.36,1.5-6.26,2.43-8.68,2.8-2.43,.38-4.02,.56-4.76,.56-3.74,0-7.47-1.21-11.2-3.64-3.74-2.42-7-5.41-9.8-8.96-2.8-3.54-5.14-7.37-7-11.48-1.87-4.1-2.8-7.65-2.8-10.64,0-3.36,.93-8.58,2.8-15.68,1.86-7.09,3.54-12.32,5.04-15.68-2.62,2.24-5.79,4.11-9.52,5.6-3.74,1.5-7.1,2.24-10.08,2.24-4.86,0-9.24-.09-13.16-.28-3.92-.18-8.31-1.02-13.16-2.52,4.85,5.23,8.68,11.58,11.48,19.04,2.8,7.47,4.2,14.75,4.2,21.84,0,14.56-2.52,27.63-7.56,39.2-5.04,11.58-11.95,21.56-20.72,29.96-8.78,8.4-19.04,14.84-30.8,19.32-11.76,4.48-24.55,6.72-38.36,6.72-9.71,0-17.83-2.33-24.36-7-6.54-4.66-11.86-10.54-15.96-17.64-4.11-7.09-7.1-15.02-8.96-23.8-1.87-8.77-2.8-17.08-2.8-24.92,0-13.06,2.52-25.76,7.56-38.08,5.04-12.32,12.04-22.77,21-31.36-5.6-3.73-11.02-8.21-16.24-13.44-5.23-5.22-9.8-11.1-13.72-17.64-3.92-6.53-7.1-13.34-9.52-20.44-2.43-7.09-3.64-14.37-3.64-21.84,0-6.72,.46-13.81,1.4-21.28,.93-7.46,2.61-14.37,5.04-20.72,2.42-6.34,6.06-12.04,10.92-17.08,4.85-5.04,11.2-8.49,19.04-10.36-4.11-2.98-7.38-7.46-9.8-13.44-2.43-5.97-4.3-12.13-5.6-18.48-1.31-6.34-2.24-12.41-2.8-18.2-.56-5.78-.84-10.17-.84-13.16,0-10.45,1.68-21.09,5.04-31.92,3.36-10.82,8.21-20.62,14.56-29.4,6.34-8.77,14.09-15.96,23.24-21.56,9.14-5.6,19.5-8.4,31.08-8.4,8.21,0,16.7,.56,25.48,1.68,8.77,1.12,16.7,3.46,23.8,7,7.09,3.55,12.88,8.5,17.36,14.84,4.48,6.35,6.72,14.56,6.72,24.64,0,8.22-.56,15.87-1.68,22.96-1.12,7.1-2.8,14.28-5.04,21.56-2.24,7.28-4.86,14.84-7.84,22.68-2.99,7.84-6.16,16.62-9.52,26.32,2.61-4.1,5.5-8.3,8.68-12.6Z"/></g></svg>