<?xml version="1.0" encoding="UTF-8"?><svg id="Layer_2" xmlns="http://www.w3.org/2000/svg" viewBox="0 0 342.72 458.64"><g id="Layer_1-2"><path d="M163.52,437.92c-5.6,2.99-11.48,5.23-17.64,6.72-6.16,1.5-12.51,2.43-19.04,2.8-6.54,.38-12.79,.56-18.76,.56-21.28,0-38.83-4.66-52.64-14-13.82-9.33-24.83-20.72-33.04-34.16-8.22-13.44-14-27.9-17.36-43.4-3.36-15.49-5.04-29.4-5.04-41.72,0-18.29,1.86-33.88,5.6-46.76,3.73-12.88,7.84-23.52,12.32-31.92,4.48-8.4,8.77-14.56,12.88-18.48,4.1-3.92,6.53-5.88,7.28-5.88-7.1-6.34-12.88-13.9-17.36-22.68-4.48-8.77-7.94-18.1-10.36-28-2.43-9.89-4.11-19.78-5.04-29.68-.94-9.89-1.4-19.32-1.4-28.28,0-10.08,1.3-21.18,3.92-33.32,2.61-12.13,6.81-23.33,12.6-33.6,5.78-10.26,13.25-18.85,22.4-25.76C51.98,3.46,62.9,0,75.6,0c14.93,0,28.18,3.46,39.76,10.36,11.57,6.91,21.28,15.96,29.12,27.16,7.84,11.2,13.81,23.71,17.92,37.52,4.1,13.82,6.16,27.63,6.16,41.44,0,7.84-1.4,16.52-4.2,26.04-2.8,9.52-6.72,18.76-11.76,27.72s-10.83,16.99-17.36,24.08c-6.54,7.1-13.35,12.32-20.44,15.68,10.08,5.6,19.97,15.59,29.68,29.96,9.7,14.38,17.73,33.7,24.08,57.96,4.48-6.34,10.64-10.26,18.48-11.76,7.84-1.49,15.86-2.24,24.08-2.24,18.29,0,35.46,3.27,51.52,9.8,16.05,6.54,29.96,14.47,41.72,23.8,11.76,9.34,21.09,19.14,28,29.4,6.9,10.27,10.36,18.95,10.36,26.04,0,26.88-7.84,47.88-23.52,63s-36.22,22.68-61.6,22.68c-6.72,0-13.91-.47-21.56-1.4-7.66-.94-15.12-2.71-22.4-5.32-7.28-2.62-14.1-5.97-20.44-10.08-6.35-4.1-11.39-9.52-15.12-16.24-4.11,5.23-8.96,9.34-14.56,12.32Z"/></g></svg>