<?xml version="1.0" encoding="UTF-8"?><svg id="Layer_2" xmlns="http://www.w3.org/2000/svg" viewBox="0 0 458.64 450.8"><g id="Layer_1-2"><path d="M448.84,119c6.53,7.28,9.8,16.15,9.8,26.6,0,5.6-1.5,10.92-4.48,15.96-2.99,5.04-6.72,9.8-11.2,14.28-4.48,4.48-9.34,8.87-14.56,13.16-5.23,4.3-10.08,8.31-14.56,12.04,14.93,17.92,26.13,37.52,33.6,58.8,7.46,21.28,11.2,43.31,11.2,66.08,0,14.94-2.15,29.78-6.44,44.52-4.3,14.75-10.64,28.1-19.04,40.04-8.4,11.95-18.95,21.66-31.64,29.12-12.7,7.46-27.26,11.2-43.68,11.2-14.94,0-27.91-3.18-38.92-9.52-11.02-6.34-20.16-14.28-27.44-23.8-7.28-9.52-12.79-20.06-16.52-31.64-3.74-11.57-5.6-22.58-5.6-33.04,0-2.98,.18-6.06,.56-9.24,.37-3.17,.93-6.25,1.68-9.24,3.36-2.98,7.09-7,11.2-12.04,4.1-5.04,7.93-10.36,11.48-15.96,3.54-5.6,6.53-11.01,8.96-16.24,2.42-5.22,3.64-9.52,3.64-12.88,0-7.46-1.03-15.68-3.08-24.64-2.06-8.96-3.08-16.8-3.08-23.52,0-7.46,2.05-13.06,6.16-16.8,4.1-3.73,8.77-6.34,14-7.84,1.86-.74,4.57-2.42,8.12-5.04,3.54-2.61,5.69-5.41,6.44-8.4-1.5,0-3.36,.47-5.6,1.4-2.24,.94-6.72,3.08-13.44,6.44-10.46,5.6-16.99,11.11-19.6,16.52-2.62,5.42-3.92,10.74-3.92,15.96,0,5.98,1.02,11.95,3.08,17.92,2.05,5.98,3.08,11.76,3.08,17.36,0,10.46-2.34,20.16-7,29.12-4.67,8.96-10.64,16.8-17.92,23.52s-15.22,12.04-23.8,15.96c-8.59,3.92-16.8,5.88-24.64,5.88-10.83,0-21.47-2.14-31.92-6.44-10.46-4.29-19.7-10.08-27.72-17.36-8.03-7.28-14.56-15.86-19.6-25.76-5.04-9.89-7.56-20.44-7.56-31.64,0-6.34,.74-12.88,2.24-19.6,1.49-6.72,3.17-12.88,5.04-18.48,1.49-1.49,3.26-3.36,5.32-5.6,2.05-2.24,4.01-4.66,5.88-7.28,1.86-2.61,3.36-5.32,4.48-8.12,1.12-2.8,1.49-5.32,1.12-7.56-3.74,4.11-7.75,8.96-12.04,14.56-4.3,5.6-9.43,8.4-15.4,8.4-6.72,0-12.6-1.58-17.64-4.76-5.04-3.17-10.18-6.25-15.4-9.24,.37,4.11,2.05,7.47,5.04,10.08,2.98,2.62,6.25,4.86,9.8,6.72,3.54,1.87,7.09,3.27,10.64,4.2,3.54,.94,6.25,1.4,8.12,1.4-.38,5.98-1.03,11.67-1.96,17.08-.94,5.42-1.4,11.3-1.4,17.64,0,15.68,4.38,30.43,13.16,44.24,8.77,13.82,21.18,25.95,37.24,36.4v12.32c0,11.58-3.46,22.68-10.36,33.32-6.91,10.64-15.5,19.98-25.76,28-10.27,8.03-21.47,14.47-33.6,19.32-12.14,4.86-23.24,7.28-33.32,7.28-8.96,0-17.92-1.68-26.88-5.04-8.96-3.36-16.99-7.93-24.08-13.72-7.1-5.78-12.88-12.88-17.36-21.28-4.48-8.4-6.72-17.64-6.72-27.72,0-10.82,2.24-20.53,6.72-29.12,4.48-8.58,10.45-16.8,17.92-24.64-8.59-7.09-15.68-16.52-21.28-28.28-5.6-11.76-8.4-23.61-8.4-35.56,0-6.34,1.02-12.88,3.08-19.6,2.05-6.72,4.57-13.34,7.56-19.88,2.98-6.53,6.16-12.78,9.52-18.76,3.36-5.97,6.53-11.2,9.52-15.68-2.99-10.82-7-21.37-12.04-31.64-5.04-10.26-7.56-21.37-7.56-33.32,0-13.81,2.98-27.62,8.96-41.44,5.97-13.81,14.18-26.22,24.64-37.24,10.45-11.01,22.4-19.97,35.84-26.88C92.96,3.46,107.33,0,122.64,0c11.2,0,23.24,2.43,36.12,7.28,12.88,4.86,24.92,11.39,36.12,19.6,11.2,8.22,20.44,17.83,27.72,28.84,7.28,11.02,10.92,22.68,10.92,35l2.24,21.84c0-7.09,1.86-14.93,5.6-23.52,3.73-8.58,8.4-17.08,14-25.48,5.6-8.4,11.57-16.24,17.92-23.52,6.34-7.28,12.13-13.53,17.36-18.76,8.96-8.58,19.13-14.28,30.52-17.08,11.38-2.8,23.05-4.2,35-4.2,8.21,0,17.26,1.22,27.16,3.64,9.89,2.43,19.13,6.16,27.72,11.2,8.58,5.04,15.68,11.3,21.28,18.76,5.6,7.47,8.4,16.24,8.4,26.32,0,3.74-.28,7.66-.84,11.76-.56,4.11-1.31,8.03-2.24,11.76-.94,3.74-2.06,7-3.36,9.8-1.31,2.8-2.71,4.76-4.2,5.88,5.97,5.98,12.22,12.6,18.76,19.88Z"/></g></svg>