<?xml version="1.0" encoding="UTF-8"?><svg id="Layer_2" xmlns="http://www.w3.org/2000/svg" viewBox="0 0 388.08 448"><g id="Layer_1-2"><path d="M196,397.04c.37-1.86,1.3-5.41,2.8-10.64,1.49-5.22,2.24-8.96,2.24-11.2,0-10.08-2.15-18.85-6.44-26.32-4.3-7.46-9.62-14.37-15.96-20.72-7.47-7.84-14.38-16.05-20.72-24.64-6.35-8.58-9.52-19.41-9.52-32.48-1.5,10.46-6.54,19.88-15.12,28.28-8.59,8.4-18.11,12.6-28.56,12.6,9.33,1.5,19.13,3.27,29.4,5.32,10.26,2.06,19.69,5.32,28.28,9.8,8.58,4.48,15.68,10.55,21.28,18.2,5.6,7.66,8.4,17.64,8.4,29.96,0,10.46-2.34,20.16-7,29.12-4.67,8.96-10.74,16.62-18.2,22.96-7.47,6.35-15.78,11.39-24.92,15.12-9.15,3.74-18.39,5.6-27.72,5.6-13.07,0-25.67-2.89-37.8-8.68-12.14-5.78-23.06-13.53-32.76-23.24-9.71-9.7-17.46-20.81-23.24-33.32-5.79-12.5-8.68-25.48-8.68-38.92s1.4-26.13,4.2-36.96c2.8-10.82,8.68-21.28,17.64-31.36-11.58-8.58-20.07-20.44-25.48-35.56C2.7,224.84,0,210,0,195.44s2.89-28.74,8.68-42.56c5.78-13.81,15.21-24.64,28.28-32.48-5.23,0-9.99-1.68-14.28-5.04-4.3-3.36-7.94-7.46-10.92-12.32-2.99-4.85-5.23-10.08-6.72-15.68-1.5-5.6-2.24-10.82-2.24-15.68,0-8.21,1.86-16.14,5.6-23.8,3.73-7.65,8.58-14.46,14.56-20.44s12.78-10.73,20.44-14.28c7.65-3.54,15.58-5.32,23.8-5.32,16.05,0,32.57,2.06,49.56,6.16,16.98,4.11,32.48,10.08,46.48,17.92s25.48,17.55,34.44,29.12c8.96,11.58,13.44,24.83,13.44,39.76,0,9.34-1.31,17.92-3.92,25.76-2.62,7.84-7.1,15.5-13.44,22.96,2.24-.74,4.29-1.12,6.16-1.12h6.72c11.2,0,21.37,2.71,30.52,8.12,9.14,5.42,16.8,12.42,22.96,21,6.16,8.59,10.92,18.3,14.28,29.12,3.36,10.83,5.04,21.47,5.04,31.92,0,6.35-.47,11.02-1.4,14-.94,2.99-2.34,7.1-4.2,12.32,5.22-4.85,8.68-9.7,10.36-14.56,1.68-4.85,2.52-8.4,2.52-10.64,0-7.84-.84-16.14-2.52-24.92-1.68-8.77-4.3-17.17-7.84-25.2-3.55-8.02-8.03-15.4-13.44-22.12-5.42-6.72-11.86-12.13-19.32-16.24-2.99-9.7-5.14-20.06-6.44-31.08-1.31-11.01-1.96-21.56-1.96-31.64,0-11.94,1.96-23.33,5.88-34.16,3.92-10.82,9.33-20.25,16.24-28.28,6.9-8.02,15.4-14.37,25.48-19.04,10.08-4.66,21.28-7,33.6-7,14.56,0,26.41,3.27,35.56,9.8,9.14,6.54,16.42,14.94,21.84,25.2,5.41,10.27,9.14,21.66,11.2,34.16,2.05,12.51,3.08,24.55,3.08,36.12,0,13.07-1.59,25.39-4.76,36.96-3.18,11.58-8.5,22.96-15.96,34.16,6.34,7.47,11.38,15.5,15.12,24.08,3.73,8.59,5.6,17.74,5.6,27.44,0,7.47-1.22,14.38-3.64,20.72-2.43,6.35-6.63,11.95-12.6,16.8-2.99-3.73-5.88-6.53-8.68-8.4-2.8-1.86-5.7-3.36-8.68-4.48,7.84,10.46,13.9,19.79,18.2,28,4.29,8.22,7.37,15.68,9.24,22.4,1.86,6.72,2.98,12.88,3.36,18.48,.37,5.6,.56,10.83,.56,15.68,0,15.68-2.8,30.24-8.4,43.68-5.6,13.44-13.35,25.11-23.24,35-9.9,9.9-21.47,17.64-34.72,23.24-13.26,5.6-27.72,8.4-43.4,8.4-5.23,0-12.32-1.4-21.28-4.2-8.96-2.8-17.83-6.53-26.6-11.2-8.78-4.66-16.34-9.98-22.68-15.96-6.35-5.97-9.52-12.13-9.52-18.48v-.56Z"/></g></svg>