<?xml version="1.0" encoding="UTF-8"?><svg id="Layer_2" xmlns="http://www.w3.org/2000/svg" viewBox="0 0 455.28 458.08"><g id="Layer_1-2"><path d="M26.6,271.88c-7.66-9.14-13.44-18.94-17.36-29.4-3.92-10.45-6.44-20.72-7.56-30.8-1.12-10.08-1.68-17.92-1.68-23.52,0-11.2,2.61-22.12,7.84-32.76,5.22-10.64,12.04-20.16,20.44-28.56,8.4-8.4,18.1-15.3,29.12-20.72,11.01-5.41,22.12-8.68,33.32-9.8,2.61-11.57,8.68-23.14,18.2-34.72,9.52-11.57,20.53-21.93,33.04-31.08,12.5-9.14,25.85-16.52,40.04-22.12C196.18,2.8,209.44,0,221.76,0s25.85,1.22,40.6,3.64c14.74,2.43,28.84,7.47,42.28,15.12,13.44,7.66,25.29,18.58,35.56,32.76,10.26,14.19,17.08,32.86,20.44,56,2.61-.37,5.13-.65,7.56-.84,2.42-.18,4.76-.28,7-.28,12.69,0,23.98,2.71,33.88,8.12,9.89,5.42,18.29,12.6,25.2,21.56,6.9,8.96,12.13,19.23,15.68,30.8,3.54,11.58,5.32,23.52,5.32,35.84,0,11.2-2.06,21.94-6.16,32.2-4.11,10.27-9.43,20.07-15.96,29.4-6.54,9.34-14,17.92-22.4,25.76-8.4,7.84-16.9,14.75-25.48,20.72,2.98,3.36,5.41,7.28,7.28,11.76,1.86,4.48,2.8,9.15,2.8,14,0,5.98-1.12,11.67-3.36,17.08-2.24,5.42-5.23,10.08-8.96,14-3.74,3.92-8.22,7.1-13.44,9.52-5.23,2.43-10.64,3.64-16.24,3.64-2.24,0-4.67-.18-7.28-.56-2.62-.37-5.23-.93-7.84-1.68-.75,13.44-4.2,25.11-10.36,35-6.16,9.9-13.91,18.11-23.24,24.64-9.34,6.54-19.88,11.48-31.64,14.84-11.76,3.36-23.8,5.04-36.12,5.04-22.03,0-41.16-5.51-57.4-16.52-16.24-11.01-28.66-26.04-37.24-45.08-4.86,1.12-9.06,1.78-12.6,1.96-3.55,.19-7.38,.28-11.48,.28-7.47,0-15.22-1.3-23.24-3.92-8.03-2.61-15.31-6.34-21.84-11.2-6.54-4.85-11.86-10.64-15.96-17.36-4.11-6.72-6.16-14.18-6.16-22.4,0-9.7,.37-18.76,1.12-27.16,.74-8.4,2.61-17.08,5.6-26.04-13.07-3.36-23.43-9.61-31.08-18.76Zm171.92-52.36c1.3,3.74,1.96,7.28,1.96,10.64,0,9.71-2.52,17.74-7.56,24.08-5.04,6.35-10.18,12.7-15.4,19.04,3.73,1.12,8.02,2.99,12.88,5.6,4.85,2.62,8.58,5.98,11.2,10.08,1.12,1.87,2.05,3.92,2.8,6.16,.74,2.24,1.49,4.67,2.24,7.28,4.85-9.7,11.38-15.77,19.6-18.2,8.21-2.42,17.17-3.64,26.88-3.64h19.6c-1.12-4.85-2.15-8.58-3.08-11.2-.94-2.61-1.4-6.16-1.4-10.64,0-8.21,1.77-16.14,5.32-23.8,3.54-7.65,6.25-14.65,8.12-21-5.98,2.99-12.6,5.32-19.88,7-7.28,1.68-14.47,2.52-21.56,2.52-.75,0-3.36-.74-7.84-2.24-4.48-1.49-9.34-3.08-14.56-4.76-5.23-1.68-10.08-3.26-14.56-4.76-4.48-1.49-7.1-2.24-7.84-2.24,.74,2.99,1.77,6.35,3.08,10.08Z"/></g></svg>