<?xml version="1.0" encoding="UTF-8"?><svg id="Layer_2" xmlns="http://www.w3.org/2000/svg" viewBox="0 0 349.44 458.64"><g id="Layer_1-2"><path d="M171.36,359.8c-3.74,16.62-9.52,32.2-17.36,46.76-7.84,14.56-17.83,26.88-29.96,36.96-12.14,10.08-26.79,15.12-43.96,15.12-11.95,0-22.4-2.34-31.36-7-8.96-4.66-16.43-10.73-22.4-18.2-5.98-7.46-10.36-16.05-13.16-25.76-2.8-9.7-4.2-19.41-4.2-29.12,0-15.3,2.89-28.46,8.68-39.48,5.78-11.01,13.34-21.18,22.68-30.52-10.46-9.33-19.79-19.78-28-31.36-8.22-11.57-12.32-25.01-12.32-40.32,0-12.32,2.52-25.48,7.56-39.48s12.97-25.1,23.8-33.32c-8.59-10.82-15.31-23.24-20.16-37.24-4.86-14-7.28-27.9-7.28-41.72,0-7.84,.84-16.33,2.52-25.48,1.68-9.14,4.48-17.54,8.4-25.2,3.92-7.65,8.96-14,15.12-19.04s13.9-7.56,23.24-7.56,17.92,2.62,26.88,7.84c8.96,5.23,16.05,11.76,21.28,19.6,11.2-13.06,23.89-22.21,38.08-27.44,14.18-5.22,29.86-7.84,47.04-7.84,8.58,0,18.57,1.59,29.96,4.76,11.38,3.18,23.05,7.75,35,13.72,11.94,5.98,23.8,13.07,35.56,21.28,11.76,8.22,22.3,17.55,31.64,28,9.33,10.46,16.8,21.75,22.4,33.88,5.6,12.14,8.4,24.92,8.4,38.36,0,16.8-3.74,32.86-11.2,48.16-7.47,15.31-18.67,27.26-33.6,35.84,1.12,3.36,2.05,6.54,2.8,9.52,.74,2.99,1.12,6.54,1.12,10.64,0,14.94-4.76,26.98-14.28,36.12-9.52,9.15-21.1,16.34-34.72,21.56-13.63,5.23-28,8.78-43.12,10.64-15.12,1.87-28.28,2.8-39.48,2.8,0,13.07-1.87,27.91-5.6,44.52Zm-5.88-156.24c4.66-4.29,9.8-7.93,15.4-10.92,5.6-2.98,11.48-5.32,17.64-7,6.16-1.68,11.85-2.7,17.08-3.08-6.72-.37-14-2.24-21.84-5.6-7.84-3.36-15.22-7.84-22.12-13.44-6.91-5.6-13.07-12.13-18.48-19.6-5.42-7.46-9.06-15.12-10.92-22.96-.75,3.74-1.78,8.4-3.08,14-1.31,5.6-2.99,11.11-5.04,16.52-2.06,5.42-4.67,10.36-7.84,14.84-3.18,4.48-6.82,7.47-10.92,8.96,6.72,.38,13.25,2.8,19.6,7.28,4.48,4.11,8.49,9.06,12.04,14.84,3.54,5.79,6.25,12.98,8.12,21.56,2.24-5.97,5.69-11.1,10.36-15.4Z"/></g></svg>