<?xml version="1.0" encoding="UTF-8"?><svg id="Layer_2" xmlns="http://www.w3.org/2000/svg" viewBox="0 0 400.4 448"><g id="Layer_1-2"><path d="M166.32,13.16C176.02,4.39,188.72,0,204.4,0c9.7,0,20.25,1.96,31.64,5.88,11.38,3.92,21.93,9.34,31.64,16.24,9.7,6.91,17.73,15.22,24.08,24.92,6.34,9.71,9.52,20.35,9.52,31.92,0,3.36-.28,6.35-.84,8.96-.56,2.62-1.4,5.79-2.52,9.52,4.85,2.24,10.26,5.7,16.24,10.36,5.97,4.67,11.48,10.36,16.52,17.08,5.04,6.72,9.24,14.28,12.6,22.68,3.36,8.4,5.04,17.27,5.04,26.6,0,10.08-.75,20.35-2.24,30.8-1.5,10.46-4.39,20.07-8.68,28.84-4.3,8.78-10.27,15.96-17.92,21.56-7.66,5.6-17.83,8.4-30.52,8.4h-5.6c-1.87,0-3.74-.18-5.6-.56,3.73,1.5,7.56,3.83,11.48,7,3.92,3.18,7.46,6.91,10.64,11.2,3.17,4.3,5.69,8.68,7.56,13.16,1.86,4.48,2.8,8.96,2.8,13.44,0,2.24-.28,5.6-.84,10.08-.56,4.48-1.78,8.78-3.64,12.88,4.1-3.73,8.68-6.62,13.72-8.68,5.04-2.05,11.1-3.08,18.2-3.08,10.08,0,19.04,2.06,26.88,6.16,7.84,4.11,14.46,9.62,19.88,16.52,5.41,6.91,9.42,14.75,12.04,23.52,2.61,8.78,3.92,17.83,3.92,27.16,0,20.91-5.04,35.38-15.12,43.4-10.08,8.03-25.2,12.04-45.36,12.04-16.8,0-31.46-.46-43.96-1.4-12.51-.93-22.78-3.17-30.8-6.72-8.03-3.54-14.1-8.68-18.2-15.4-4.11-6.72-6.35-15.86-6.72-27.44-9.71,0-18.39-1.3-26.04-3.92-7.66-2.61-14.38-6.16-20.16-10.64-5.79-4.48-11.02-9.89-15.68-16.24-4.67-6.34-8.87-13.25-12.6-20.72-5.23,20.91-10.64,38.08-16.24,51.52-5.6,13.44-11.86,23.9-18.76,31.36-6.91,7.47-14.56,12.6-22.96,15.4-8.4,2.8-18.2,4.2-29.4,4.2-13.82,0-24.74-4.2-32.76-12.6-8.03-8.4-14.19-18.38-18.48-29.96-4.3-11.57-7-23.14-8.12-34.72-1.12-11.57-1.87-20.53-2.24-26.88,.74-16.8,4.29-32.01,10.64-45.64,6.34-13.62,14.18-26.22,23.52-37.8-4.86-2.61-10.18-6.16-15.96-10.64-5.79-4.48-11.3-9.61-16.52-15.4-5.23-5.78-9.62-12.22-13.16-19.32-3.55-7.09-5.32-14.56-5.32-22.4,0-11.94,2.24-23.24,6.72-33.88,4.48-10.64,11.57-19.69,21.28-27.16-5.23-7.09-9.9-14.65-14-22.68-4.11-8.02-6.16-17.08-6.16-27.16s2.7-19.6,8.12-28.56c5.41-8.96,12.22-16.8,20.44-23.52,8.21-6.72,17.26-12.04,27.16-15.96,9.89-3.92,19.13-5.88,27.72-5.88,13.81,0,25.76,3.08,35.84,9.24,10.08,6.16,17.36,17.27,21.84,33.32,1.86-16.05,7.65-28.46,17.36-37.24Zm-13.44,109.48c-3.36,4.48-7.19,8.5-11.48,12.04-4.3,3.55-8.68,6.63-13.16,9.24-4.48,2.62-8.22,4.48-11.2,5.6,7.46,4.11,12.97,9.52,16.52,16.24,3.54,6.72,5.5,14.19,5.88,22.4v7.84c0,2.24-.38,4.67-1.12,7.28,3.36-1.12,7.28-1.68,11.76-1.68,4.1,0,7.93,.38,11.48,1.12,3.54,.75,6.62,1.5,9.24,2.24-.75-2.98-1.12-5.6-1.12-7.84v-6.72c0-6.72,1.12-12.32,3.36-16.8,2.24-4.48,4.85-8.21,7.84-11.2,2.98-2.98,6.34-5.5,10.08-7.56,3.73-2.05,7.28-4.01,10.64-5.88-8.22-3.73-16.15-9.42-23.8-17.08-7.66-7.65-13.72-15.58-18.2-23.8-1.12,5.23-3.36,10.08-6.72,14.56Z"/></g></svg>