<?xml version="1.0" encoding="UTF-8"?><svg id="Layer_2" xmlns="http://www.w3.org/2000/svg" viewBox="0 0 381.92 458.64"><g id="Layer_1-2"><path d="M152.04,406.28c1.68,2.8,3.82,5.51,6.44,8.12,2.61,2.62,5.22,5.14,7.84,7.56,2.61,2.43,5.04,4.95,7.28,7.56-7.47,9.71-16.62,16.99-27.44,21.84-10.83,4.85-22.22,7.28-34.16,7.28-13.44,0-26.79-2.15-40.04-6.44-13.26-4.29-25.2-10.54-35.84-18.76-10.64-8.21-19.32-18.1-26.04-29.68-6.72-11.57-10.08-24.45-10.08-38.64,0-14.93,3.36-28,10.08-39.2,6.72-11.2,15.4-20.44,26.04-27.72,10.64-7.28,22.68-12.69,36.12-16.24,13.44-3.54,27.06-5.32,40.88-5.32,11.2,0,22.49,2.34,33.88,7,11.38,4.67,21.84,10.83,31.36,18.48,9.52,7.66,17.64,16.24,24.36,25.76,6.72,9.52,11.01,19.32,12.88,29.4,1.12,0,1.96-.74,2.52-2.24,.56-1.49,.84-2.8,.84-3.92,0-9.33-3.64-18.85-10.92-28.56-7.28-9.7-16.52-18.66-27.72-26.88-11.2-8.21-23.8-14.93-37.8-20.16-14-5.22-27.72-7.84-41.16-7.84-10.08-5.6-19.79-11.76-29.12-18.48-9.34-6.72-17.64-14.18-24.92-22.4-7.28-8.21-13.16-17.36-17.64-27.44s-6.72-21.28-6.72-33.6c0-15.68,2.24-32.01,6.72-49,4.48-16.98,11.29-32.57,20.44-46.76,9.14-14.18,20.53-25.85,34.16-35,13.62-9.14,29.4-13.72,47.32-13.72,6.34,0,12.32,1.4,17.92,4.2s10.82,5.7,15.68,8.68c10.08-10.45,23.14-18.76,39.2-24.92C220.45,3.08,236.32,0,252,0c16.8,0,32.66,4.2,47.6,12.6,14.93,8.4,28,18.86,39.2,31.36,11.2,12.51,20.06,26.04,26.6,40.6,6.53,14.56,9.8,28.19,9.8,40.88,0,7.84-1.68,16.8-5.04,26.88-3.36,10.08-8.03,19.6-14,28.56-5.98,8.96-12.98,16.43-21,22.4-8.03,5.98-16.52,8.96-25.48,8.96-10.46,0-21.75-1.4-33.88-4.2-12.14-2.8-23.8-7.28-35-13.44-11.2-6.16-21.56-14.28-31.08-24.36-9.52-10.08-16.71-22.21-21.56-36.4-.38,1.87-.66,3.55-.84,5.04-.19,1.5-.28,3.18-.28,5.04,0,12.32,4.76,23.34,14.28,33.04,9.52,9.71,21,17.92,34.44,24.64,13.44,6.72,27.16,11.95,41.16,15.68,14,3.74,25.48,5.98,34.44,6.72,11.57,4.86,21.74,10.46,30.52,16.8,8.77,6.35,16.14,14,22.12,22.96,5.97,8.96,10.45,19.79,13.44,32.48,2.98,12.7,4.48,27.82,4.48,45.36,0,13.44-3.74,26.51-11.2,39.2-7.47,12.7-17.08,24.08-28.84,34.16-11.76,10.08-24.92,18.11-39.48,24.08-14.56,5.98-28.75,8.96-42.56,8.96-21.66,0-41.63-4.48-59.92-13.44-18.3-8.96-35.1-21.46-50.4-37.52,0,3.36,.84,6.44,2.52,9.24Z"/></g></svg>