<?xml version="1.0" encoding="UTF-8"?><svg id="Layer_2" xmlns="http://www.w3.org/2000/svg" viewBox="0 0 394.8 450.8"><g id="Layer_1-2"><path d="M261.52,258.16c4.48,6.35,8.49,13.54,12.04,21.56,3.54,8.03,6.53,16.15,8.96,24.36,2.42,8.22,3.64,15.68,3.64,22.4,0,15.31-1.78,30.34-5.32,45.08-3.55,14.75-9.24,28-17.08,39.76-7.84,11.76-18.02,21.28-30.52,28.56-12.51,7.28-27.72,10.92-45.64,10.92-10.83,0-21.19-2.24-31.08-6.72-9.9-4.48-18.58-10.54-26.04-18.2-7.47-7.65-13.54-16.61-18.2-26.88-4.67-10.26-7-21-7-32.2,0-15.3,2.33-28.65,7-40.04,4.66-11.38,10.17-18.38,16.52-21-5.98-1.49-11.86-4.38-17.64-8.68-5.79-4.29-10.92-9.24-15.4-14.84-4.48-5.6-8.03-11.85-10.64-18.76-2.62-6.9-3.92-13.9-3.92-21,0-11.57,1.58-21.56,4.76-29.96,3.17-8.4,6.81-15.49,10.92-21.28,4.1-5.78,8.02-10.54,11.76-14.28s6.34-6.53,7.84-8.4c-6.72,1.12-13.07,1.68-19.04,1.68-13.82,0-26.6-2.24-38.36-6.72-11.76-4.48-22.03-10.92-30.8-19.32-8.78-8.4-15.68-18.57-20.72-30.52C2.52,101.74,0,88.48,0,73.92c0-12.69,3.36-23.7,10.08-33.04,6.72-9.33,15.12-17.08,25.2-23.24S56.18,7,67.76,4.2C79.33,1.4,89.97,0,99.68,0s20.16,1.4,30.24,4.2,20.06,6.44,29.96,10.92c9.89,4.48,19.41,9.62,28.56,15.4,9.14,5.79,17.64,11.48,25.48,17.08,5.6-7.09,12.5-13.53,20.72-19.32,8.21-5.78,16.7-10.73,25.48-14.84,8.77-4.1,17.54-7.37,26.32-9.8,8.77-2.42,16.7-3.64,23.8-3.64,14.56,0,27.06,2.99,37.52,8.96,10.45,5.98,19.22,13.91,26.32,23.8,7.09,9.9,12.32,21.19,15.68,33.88,3.36,12.7,5.04,25.76,5.04,39.2,0,11.58-2.62,22.87-7.84,33.88-5.23,11.02-12.23,20.91-21,29.68s-18.58,15.87-29.4,21.28c-10.83,5.42-21.84,8.12-33.04,8.12-7.47,0-14.38-1.3-20.72-3.92-.75,14.94-3.92,26.14-9.52,33.6-5.6,7.47-14,12.7-25.2,15.68,4.48,2.99,8.96,7.66,13.44,14Z"/></g></svg>