<?xml version="1.0" encoding="UTF-8"?><svg id="Layer_2" xmlns="http://www.w3.org/2000/svg" viewBox="0 0 418.32 448"><g id="Layer_1-2"><path d="M159.6,440.16c-6.35,5.23-13.63,7.84-21.84,7.84-17.92,0-32.95-3.36-45.08-10.08-12.14-6.72-21.94-15.4-29.4-26.04-7.47-10.64-12.79-22.49-15.96-35.56-3.18-13.06-4.76-25.76-4.76-38.08,0-10.45,1.86-19.97,5.6-28.56-9.71-4.1-17.64-10.36-23.8-18.76-6.16-8.4-11.11-17.73-14.84-28-3.74-10.26-6.26-21-7.56-32.2-1.31-11.2-1.96-21.84-1.96-31.92,0-12.69,2.42-24.92,7.28-36.68,4.85-11.76,10.54-22.12,17.08-31.08,6.53-8.96,12.88-16.14,19.04-21.56,6.16-5.41,10.73-8.3,13.72-8.68-16.43-9.33-28-18.2-34.72-26.6-6.72-8.4-10.08-16.14-10.08-23.24,0-7.84,3.54-14.93,10.64-21.28,7.09-6.34,16.24-11.76,27.44-16.24,11.2-4.48,23.52-7.84,36.96-10.08S114.05,0,127.12,0c8.21,0,16.33,2.62,24.36,7.84,8.02,5.23,15.21,11.95,21.56,20.16,6.34,8.22,11.57,17.36,15.68,27.44,4.1,10.08,6.16,19.98,6.16,29.68,0,15.68-4.39,29.31-13.16,40.88-8.78,11.58-19.7,21.1-32.76,28.56,17.92,7.47,30.61,18.11,38.08,31.92,7.46,13.82,11.2,30.24,11.2,49.28,0,8.59-2.52,15.87-7.56,21.84-5.04,5.98-10.92,11.58-17.64,16.8-1.12-1.12-2.71-2.33-4.76-3.64-2.06-1.3-3.83-2.33-5.32-3.08,2.61,7.47,5.22,13.44,7.84,17.92,2.61,4.48,5.22,10.46,7.84,17.92,5.6-3.73,10.26-6.81,14-9.24,3.73-2.42,6.81-4.29,9.24-5.6,2.42-1.3,4.38-2.14,5.88-2.52,1.49-.37,2.98-.56,4.48-.56,5.22,0,11.2,.75,17.92,2.24,6.72,1.5,13.25,3.18,19.6,5.04-7.47-7.84-12.7-16.89-15.68-27.16-2.99-10.26-4.48-20.62-4.48-31.08,0-13.81,3.45-27.81,10.36-42,6.9-14.18,16.33-24.64,28.28-31.36-6.72-9.7-12.04-19.13-15.96-28.28-3.92-9.14-5.88-19.69-5.88-31.64s2.8-23.42,8.4-35.56c5.6-12.13,13.06-23.05,22.4-32.76,9.33-9.7,19.88-17.64,31.64-23.8,11.76-6.16,23.61-9.24,35.56-9.24,7.46,0,15.02,2.24,22.68,6.72,7.65,4.48,14.56,10.36,20.72,17.64s11.1,15.5,14.84,24.64c3.73,9.15,5.6,18.39,5.6,27.72,0,13.44-2.43,26.23-7.28,38.36-4.86,12.14-10.83,23.43-17.92,33.88,11.94,4.11,20.81,11.3,26.6,21.56,5.78,10.27,8.68,21.38,8.68,33.32,0,7.1-1.12,14.47-3.36,22.12-2.24,7.66-5.32,14.75-9.24,21.28-3.92,6.54-8.87,12.23-14.84,17.08-5.98,4.86-12.51,8.03-19.6,9.52,1.49,.75,2.98,2.43,4.48,5.04,1.49,2.62,2.8,5.51,3.92,8.68,1.12,3.18,2.05,6.35,2.8,9.52,.74,3.18,1.12,5.7,1.12,7.56,0,22.4-3.08,42.47-9.24,60.2-6.16,17.74-14.66,32.76-25.48,45.08-10.83,12.32-23.62,21.75-38.36,28.28-14.75,6.54-30.71,9.8-47.88,9.8-15.31,0-30.43-1.21-45.36-3.64-14.94-2.42-28.38-9.05-40.32-19.88-5.23,5.23-11.02,10.46-17.36,15.68Z"/></g></svg>