<?xml version="1.0" encoding="UTF-8"?><svg id="Layer_2" xmlns="http://www.w3.org/2000/svg" viewBox="0 0 434 448"><g id="Layer_1-2"><path d="M105.28,219.8c-1.5,.19-3.18,.28-5.04,.28-12.32-.74-24.55-4.1-36.68-10.08-12.14-5.97-22.87-13.53-32.2-22.68-9.34-9.14-16.9-19.5-22.68-31.08C2.89,144.67,0,132.91,0,120.96c0-13.44,2.14-26.88,6.44-40.32,4.29-13.44,10.54-25.57,18.76-36.4,8.21-10.82,18.2-19.6,29.96-26.32,11.76-6.72,24.92-10.08,39.48-10.08,11.2,0,22.58,2.24,34.16,6.72,11.57,4.48,22.12,10.83,31.64,19.04,9.52,8.22,17.26,17.83,23.24,28.84,5.97,11.02,8.96,23.24,8.96,36.68,0,5.23-.28,10.74-.84,16.52-.56,5.79-1.78,11.39-3.64,16.8-1.87,5.42-4.48,10.18-7.84,14.28-3.36,4.11-7.66,7.28-12.88,9.52,4.85,2.99,10.17,6.54,15.96,10.64,5.78,4.11,11.48,8.5,17.08,13.16,5.6,4.67,10.92,9.71,15.96,15.12,5.04,5.42,9.05,10.92,12.04,16.52-1.87,9.71-3.08,17.36-3.64,22.96-.56,5.6-.84,11.76-.84,18.48,0,7.1,.18,13.07,.56,17.92,.37,4.86,1.12,11.02,2.24,18.48-2.99,1.12-5.7,2.24-8.12,3.36-2.43,1.12-7.19,3.36-14.28,6.72,9.33-1.86,17.36-2.8,24.08-2.8,4.1,0,8.02,.47,11.76,1.4,3.73,.94,7.46,2.34,11.2,4.2-9.71-7.09-15.4-14.37-17.08-21.84-1.68-7.46-2.52-16.8-2.52-28,0-15.68,2.98-31.45,8.96-47.32,5.97-15.86,15.3-28.65,28-38.36-4.48-1.49-8.31-4.57-11.48-9.24-3.18-4.66-5.79-9.7-7.84-15.12-2.06-5.41-3.46-10.64-4.2-15.68-.75-5.04-1.12-8.49-1.12-10.36,0-15.3,2.52-29.96,7.56-43.96s12.04-26.41,21-37.24c8.96-10.82,19.78-19.41,32.48-25.76,12.69-6.34,26.88-9.52,42.56-9.52,14.18,0,26.69,2.62,37.52,7.84,10.82,5.23,19.88,11.95,27.16,20.16,7.28,8.22,12.69,17.08,16.24,26.6,3.54,9.52,5.32,18.39,5.32,26.6s-1.4,16.15-4.2,24.92c-2.8,8.78-6.72,16.99-11.76,24.64-5.04,7.66-11.02,14.28-17.92,19.88-6.91,5.6-14.47,9.34-22.68,11.2,8.21,9.34,12.32,20.54,12.32,33.6,0,15.68-3.74,30.06-11.2,43.12-7.47,13.07-21.47,25.39-42,36.96,3.73,2.24,6.72,5.32,8.96,9.24,2.24,3.92,4.01,8.4,5.32,13.44,1.3,5.04,2.24,10.08,2.8,15.12s.84,9.8,.84,14.28c0,16.43-3.36,32.02-10.08,46.76-6.72,14.75-15.68,27.54-26.88,38.36-11.2,10.83-24.08,19.42-38.64,25.76-14.56,6.35-29.68,9.52-45.36,9.52-18.67,0-37.06-3.36-55.16-10.08-18.11-6.72-34.26-16.14-48.44-28.28-14.19-12.13-25.58-26.5-34.16-43.12-8.59-16.61-12.88-35-12.88-55.16,0-17.92,1.68-34.34,5.04-49.28,3.36-14.93,10.82-29.3,22.4-43.12-1.87,.38-3.55,.66-5.04,.84Z"/></g></svg>