<?xml version="1.0" encoding="UTF-8"?><svg id="Layer_2" xmlns="http://www.w3.org/2000/svg" viewBox="0 0 557.2 458.64"><g id="Layer_1-2"><path d="M234.36,413.28c-7.28,8.22-15.12,15.68-23.52,22.4-8.4,6.72-17.36,12.23-26.88,16.52s-19.51,6.44-29.96,6.44c-11.2,0-22.31-2.34-33.32-7-11.02-4.66-20.82-11.01-29.4-19.04-8.59-8.02-15.59-17.26-21-27.72-5.42-10.45-8.12-21.46-8.12-33.04,.74-8.96,1.86-18.1,3.36-27.44,1.49-9.33,5.41-17.17,11.76-23.52-20.91-13.06-36.03-29.02-45.36-47.88-9.34-18.85-14-40.41-14-64.68,0-9.7,.93-19.22,2.8-28.56,1.86-9.33,6.9-17.36,15.12-24.08-10.46-7.46-19.04-18.1-25.76-31.92C3.36,109.95,0,96.32,0,82.88,0,60.11,5.41,41.91,16.24,28.28,27.06,14.66,45.17,7.84,70.56,7.84c12.32,0,24.08,2.15,35.28,6.44,11.2,4.3,21.37,10.18,30.52,17.64,9.14,7.47,17.17,16.15,24.08,26.04,6.9,9.9,12.04,20.26,15.4,31.08-4.48,9.71-8.12,20.54-10.92,32.48-2.8,11.95-4.2,23.34-4.2,34.16v2.8c0,4.86-5.42,7.28-16.24,7.28,8.21,4.11,13.62,8.59,16.24,13.44,2.61,4.86,3.92,11.76,3.92,20.72-.75,14.19-2.9,27.07-6.44,38.64-3.55,11.58-5.32,20.72-5.32,27.44,0,2.99,.09,5.51,.28,7.56,.18,2.06,1.02,3.64,2.52,4.76,.74-5.97,1.96-12.13,3.64-18.48,1.68-6.34,3.36-12.88,5.04-19.6,1.68-6.72,3.17-13.34,4.48-19.88,1.3-6.53,1.96-12.97,1.96-19.32,0-7.84-.66-15.58-1.96-23.24-1.31-7.65-1.96-15.4-1.96-23.24,0-17.92,3.08-35.28,9.24-52.08s14.74-31.73,25.76-44.8c11.01-13.06,24.17-23.52,39.48-31.36,15.3-7.84,32.1-11.76,50.4-11.76,12.69,0,24.45,3.08,35.28,9.24,10.82,6.16,20.25,14.1,28.28,23.8,8.02,9.71,14.28,20.44,18.76,32.2,4.48,11.76,6.72,23.43,6.72,35,0,9.71-.94,19.42-2.8,29.12-1.87,9.71-5.23,18.86-10.08,27.44,5.6,2.62,10.92,6.26,15.96,10.92,5.04,4.67,9.8,9.52,14.28,14.56,4.48,5.04,8.77,10.08,12.88,15.12,4.1,5.04,7.84,9.06,11.2,12.04-3.36-11.94-9.15-22.86-17.36-32.76-8.22-9.89-17.55-17.82-28-23.8,4.85-9.7,7.93-19.78,9.24-30.24,1.3-10.45,1.96-20.72,1.96-30.8,0-13.44,3.17-26.6,9.52-39.48,6.34-12.88,14.74-24.26,25.2-34.16,10.45-9.89,22.21-17.82,35.28-23.8,13.06-5.97,26.13-8.96,39.2-8.96,7.84,0,15.3,1.68,22.4,5.04,7.09,3.36,13.44,7.75,19.04,13.16,5.6,5.42,10.08,11.58,13.44,18.48,3.36,6.91,5.04,13.91,5.04,21,0,15.68-1.87,29.68-5.6,42-3.74,12.32-8.4,23.24-14,32.76-5.6,9.52-11.58,17.92-17.92,25.2-6.35,7.28-11.95,13.35-16.8,18.2,5.22,8.22,8.4,16.62,9.52,25.2,1.12,8.59,1.68,17.74,1.68,27.44,0,14.94-4.3,28.75-12.88,41.44-8.59,12.7-19.42,22.22-32.48,28.56,1.12,8.22,1.86,15.22,2.24,21,.37,5.79,.56,12.6,.56,20.44,0,13.82-2.06,27.16-6.16,40.04-4.11,12.88-10.08,24.36-17.92,34.44-7.84,10.08-17.64,18.2-29.4,24.36-11.76,6.16-25.48,9.24-41.16,9.24-9.71,0-20.16-.84-31.36-2.52-11.2-1.68-22.31-4.76-33.32-9.24-11.02-4.48-21.56-10.45-31.64-17.92-10.08-7.46-18.86-17.17-26.32-29.12-5.98,7.84-12.6,15.87-19.88,24.08Z"/></g></svg>