<?xml version="1.0" encoding="UTF-8"?><svg id="Layer_2" xmlns="http://www.w3.org/2000/svg" viewBox="0 0 440.72 458.64"><g id="Layer_1-2"><path d="M255.36,95.2c0-7.46,1.96-16.61,5.88-27.44,3.92-10.82,9.8-21.28,17.64-31.36,7.84-10.08,17.36-18.66,28.56-25.76,11.2-7.09,24.08-10.64,38.64-10.64,12.69,0,24.82,2.34,36.4,7,11.57,4.67,21.65,11.2,30.24,19.6,8.58,8.4,15.4,18.2,20.44,29.4s7.56,23.15,7.56,35.84c0,26.51-4.86,48.63-14.56,66.36-9.71,17.74-21.66,32.02-35.84,42.84-14.19,10.83-29.31,18.48-45.36,22.96-16.06,4.48-30.62,6.72-43.68,6.72-6.35,0-11.48-.93-15.4-2.8-3.92-1.86-7.75-5.6-11.48-11.2,.74,8.59,3.73,14.19,8.96,16.8,5.22,2.62,11.2,3.92,17.92,3.92,5.6,0,11.1-.56,16.52-1.68,5.41-1.12,10.92-1.68,16.52-1.68,7.09,0,13.81,3.27,20.16,9.8,6.34,6.54,9.52,13.35,9.52,20.44-.75,7.47-2.9,15.4-6.44,23.8-3.55,8.4-9.62,14.1-18.2,17.08,1.86-.37,4.66-.56,8.4-.56,9.7,0,19.22,1.59,28.56,4.76,9.33,3.18,17.54,7.75,24.64,13.72,7.09,5.98,12.78,13.26,17.08,21.84,4.29,8.59,6.44,18.11,6.44,28.56,0,14.19-2.8,26.51-8.4,36.96-5.6,10.46-13.07,19.32-22.4,26.6-9.34,7.28-19.98,12.69-31.92,16.24-11.95,3.54-24.27,5.32-36.96,5.32s-26.14-2.99-40.32-8.96c-14.19-5.97-27.16-13.81-38.92-23.52-11.76-9.7-21.47-20.72-29.12-33.04-7.66-12.32-11.48-24.82-11.48-37.52,0-10.08,1.86-19.22,5.6-27.44,3.73-8.21,8.21-15.49,13.44-21.84-6.72,2.24-11.95,6.54-15.68,12.88-3.74,6.35-6.63,13.63-8.68,21.84-2.06,8.22-3.27,16.52-3.64,24.92-.38,8.4-.56,15.78-.56,22.12,0,16.43-8.31,30.52-24.92,42.28-16.62,11.76-40.6,17.64-71.96,17.64-14.56,0-27.91-2.61-40.04-7.84-12.14-5.22-22.5-12.32-31.08-21.28-8.59-8.96-15.31-19.6-20.16-31.92-4.86-12.32-7.28-25.57-7.28-39.76,0-16.8,3.36-32.2,10.08-46.2s15.86-26.13,27.44-36.4c11.57-10.26,24.82-18.29,39.76-24.08,14.93-5.78,30.8-8.68,47.6-8.68,4.48,0,9.7,1.03,15.68,3.08,5.97,2.06,10.45,4.02,13.44,5.88-1.5-2.24-2.52-4.85-3.08-7.84-.56-2.98-.84-5.6-.84-7.84s.18-4.29,.56-6.16c.37-1.86,1.3-4.29,2.8-7.28-5.23,2.99-11.02,5.51-17.36,7.56-6.35,2.06-12.7,3.08-19.04,3.08-4.48,0-9.52-1.12-15.12-3.36-5.6-2.24-10.74-5.32-15.4-9.24-4.67-3.92-8.68-8.21-12.04-12.88-3.36-4.66-5.04-9.61-5.04-14.84,0-19.41,2.42-31.54,7.28-36.4-4.11,.38-8.22,.84-12.32,1.4-4.11,.56-8.22,.84-12.32,.84-6.35,0-12.14-2.14-17.36-6.44-5.23-4.29-9.71-9.52-13.44-15.68-3.74-6.16-6.63-12.88-8.68-20.16-2.06-7.28-3.08-14.09-3.08-20.44,0-12.32,2.61-23.24,7.84-32.76,5.22-9.52,12.22-17.64,21-24.36,8.77-6.72,18.85-11.76,30.24-15.12,11.38-3.36,23.24-5.04,35.56-5.04,15.68,0,30.89,2.43,45.64,7.28,14.74,4.86,27.81,11.76,39.2,20.72,11.38,8.96,20.44,19.98,27.16,33.04,6.72,13.07,10.08,27.82,10.08,44.24,0,7.1-1.5,13.44-4.48,19.04,4.1-1.86,7.84-3.17,11.2-3.92,3.36-.74,7.28-1.12,11.76-1.12,5.22,0,9.42,.47,12.6,1.4,3.17,.94,6.62,2.52,10.36,4.76-8.22-10.45-12.32-23.14-12.32-38.08Z"/></g></svg>