<?xml version="1.0" encoding="UTF-8"?><svg id="Layer_2" xmlns="http://www.w3.org/2000/svg" viewBox="0 0 394.24 458.64"><g id="Layer_1-2"><path d="M200.48,159.04c2.98,0,5.6,.19,7.84,.56,2.24,.38,4.85,.75,7.84,1.12,0-1.12-1.96-3.82-5.88-8.12-3.92-4.29-5.88-9.8-5.88-16.52,1.86-4.48,3.45-9.42,4.76-14.84,1.3-5.41,1.96-11.29,1.96-17.64s-1.12-12.88-3.36-19.6c-2.24-6.72-6.54-13.25-12.88-19.6,0-8.58,2.8-16.42,8.4-23.52,5.6-7.09,12.5-13.06,20.72-17.92,8.21-4.85,16.7-8.58,25.48-11.2,8.77-2.61,16.33-3.92,22.68-3.92,5.6,0,11.1,1.87,16.52,5.6,5.41,3.74,9.98,8.22,13.72,13.44,4.1-8.96,10.45-15.68,19.04-20.16,8.58-4.48,16.98-6.72,25.2-6.72,14.18,0,25.66,4.11,34.44,12.32,8.77,8.22,13.16,20.35,13.16,36.4,0,10.46-3.08,18.95-9.24,25.48-6.16,6.54-14.1,11.48-23.8,14.84,5.22,4.11,8.96,9.24,11.2,15.4,2.24,6.16,3.36,12.98,3.36,20.44,0,10.46-2.24,21.47-6.72,33.04-4.48,11.58-10.83,22.22-19.04,31.92-8.22,9.71-17.83,17.92-28.84,24.64-11.02,6.72-22.87,10.46-35.56,11.2,1.12,6.35,1.86,12.88,2.24,19.6,.37,6.72,.56,13.07,.56,19.04,0,23.15-4.48,42.66-13.44,58.52-8.96,15.87-20.35,31.08-34.16,45.64,5.97-3.73,11.29-7.37,15.96-10.92,4.66-3.54,9.42-8.3,14.28-14.28,.37,1.87,.56,3.74,.56,5.6v5.04c0,11.2-1.78,22.96-5.32,35.28-3.55,12.32-8.68,23.62-15.4,33.88-6.72,10.27-14.94,18.76-24.64,25.48-9.71,6.72-20.54,10.08-32.48,10.08-32.86-1.87-57.12-9.43-72.8-22.68-15.68-13.25-23.52-29.4-23.52-48.44,0-5.6,.93-12.13,2.8-19.6,4.1,1.5,9.14,3.18,15.12,5.04,5.97,1.87,12.32,2.8,19.04,2.8-14.56-6.72-26.88-16.14-36.96-28.28-10.08-12.13-15.12-29.4-15.12-51.8,0-14.93,2.33-28.18,7-39.76,4.66-11.57,11.29-23.52,19.88-35.84-9.34-1.86-20.26-5.22-32.76-10.08-12.51-4.85-24.46-11.1-35.84-18.76-11.39-7.65-21-16.61-28.84-26.88C3.92,154.1,0,142.8,0,130.48c0-9.7,2.14-17.45,6.44-23.24,4.29-5.78,9.42-10.17,15.4-13.16-5.23-5.22-8.68-11.1-10.36-17.64-1.68-6.53-2.52-13.34-2.52-20.44,0-5.22,.74-10.64,2.24-16.24,1.49-5.6,3.64-10.82,6.44-15.68,2.8-4.85,6.25-8.77,10.36-11.76,4.1-2.98,8.96-4.48,14.56-4.48,7.09,0,12.69,.66,16.8,1.96,4.1,1.31,7.46,3.08,10.08,5.32,2.61,2.24,5.04,4.86,7.28,7.84,2.24,2.99,5.04,6.16,8.4,9.52,4.48-3.73,9.05-6.44,13.72-8.12,4.66-1.68,9.05-2.52,13.16-2.52,11.57,0,22.68,2.34,33.32,7,10.64,4.67,19.97,11.11,28,19.32,8.02,8.22,14.46,17.64,19.32,28.28,4.85,10.64,7.28,22.12,7.28,34.44,0,10.46-2.15,20.16-6.44,29.12-4.3,8.96-9.99,17.18-17.08,24.64,8.96-3.73,16.98-5.6,24.08-5.6Z"/></g></svg>