<?xml version="1.0" encoding="UTF-8"?><svg id="Layer_2" xmlns="http://www.w3.org/2000/svg" viewBox="0 0 384.16 446.88"><g id="Layer_1-2"><path d="M147.84,12.6C159.04,4.2,172.66,0,188.72,0c10.08,0,18.66,1.22,25.76,3.64,7.09,2.43,13.16,5.88,18.2,10.36,5.04,4.48,9.7,9.8,14,15.96,4.29,6.16,8.68,12.98,13.16,20.44-1.87-4.1-2.9-7.56-3.08-10.36-.19-2.8-.28-5.5-.28-8.12,0-3.73,1.3-7.18,3.92-10.36,2.61-3.17,5.78-5.88,9.52-8.12,3.73-2.24,7.74-3.92,12.04-5.04,4.29-1.12,8.3-1.68,12.04-1.68,17.17,0,31.45,3.18,42.84,9.52,11.38,6.35,20.62,14.75,27.72,25.2,7.09,10.46,12.13,22.31,15.12,35.56,2.98,13.26,4.48,26.79,4.48,40.6,0,15.68-2.52,30.99-7.56,45.92-5.04,14.94-12.14,28.28-21.28,40.04-9.15,11.76-20.35,21.28-33.6,28.56-13.26,7.28-28.28,10.92-45.08,10.92-8.59,0-17.55-1.58-26.88-4.76-9.34-3.17-16.62-7.37-21.84-12.6,2.98,6.72,4.48,12.14,4.48,16.24,0,8.59-3.74,16.06-11.2,22.4-7.47,6.35-17.36,14.94-29.68,25.76,15.68-11.57,28.93-19.69,39.76-24.36,10.82-4.66,20.9-7,30.24-7,6.34,0,15.86,2.15,28.56,6.44,12.69,4.3,25.38,11.11,38.08,20.44,12.69,9.34,23.8,21.1,33.32,35.28,9.52,14.19,14.28,31.18,14.28,50.96,0,9.71-2.52,19.04-7.56,28-5.04,8.96-11.58,16.99-19.6,24.08-8.03,7.1-16.99,12.7-26.88,16.8-9.9,4.11-19.7,6.16-29.4,6.16-10.46,0-21.75-.65-33.88-1.96-12.14-1.3-23.8-3.64-35-7-11.2-3.36-21.28-7.74-30.24-13.16-8.96-5.41-15.68-12.22-20.16-20.44-3.74,7.47-8.78,13.82-15.12,19.04-6.35,5.23-13.44,9.62-21.28,13.16-7.84,3.55-16.06,6.16-24.64,7.84-8.59,1.68-16.8,2.52-24.64,2.52-8.59,0-17.92-.74-28-2.24-10.08-1.49-19.51-4.2-28.28-8.12-8.78-3.92-16.15-9.05-22.12-15.4-5.98-6.34-8.96-14.37-8.96-24.08,0-16.8,2.14-32.76,6.44-47.88,4.29-15.12,10.92-28.28,19.88-39.48,8.96-11.2,20.44-20.06,34.44-26.6,14-6.53,30.7-9.8,50.12-9.8,5.22,0,9.33,.47,12.32,1.4,2.98,.94,6.9,1.78,11.76,2.52-2.24-4.48-3.64-9.52-4.2-15.12s-.84-11.2-.84-16.8c0-12.69,1.96-23.61,5.88-32.76,3.92-9.14,8.58-16.98,14-23.52,5.41-6.53,11.1-11.76,17.08-15.68,5.97-3.92,11.2-7.18,15.68-9.8,.74-.37,2.7-1.21,5.88-2.52,3.17-1.3,6.72-2.89,10.64-4.76,3.92-1.86,7.84-4.2,11.76-7s6.81-6.06,8.68-9.8c-1.87,1.87-4.58,3.74-8.12,5.6-3.55,1.87-7.19,3.64-10.92,5.32-3.74,1.68-7.38,3.08-10.92,4.2-3.55,1.12-6.07,1.68-7.56,1.68-8.96,0-16.99-.37-24.08-1.12-7.1-.74-14.19-2.42-21.28-5.04-7.1-2.61-14.66-6.34-22.68-11.2-8.03-4.85-17.46-11.38-28.28-19.6,5.6,6.72,10.73,12.42,15.4,17.08,4.66,4.67,9.24,8.5,13.72,11.48,4.48,2.99,8.86,5.6,13.16,7.84,4.29,2.24,9.05,4.48,14.28,6.72-1.87,2.62-4.39,5.23-7.56,7.84-3.18,2.62-6.63,5.04-10.36,7.28-3.74,2.24-7.47,4.02-11.2,5.32-3.74,1.31-7.28,1.96-10.64,1.96-10.08,0-20.63-2.42-31.64-7.28-11.02-4.85-21.1-11.38-30.24-19.6-9.15-8.21-16.71-17.92-22.68-29.12-5.98-11.2-8.96-23.14-8.96-35.84,0-6.72,1.21-15.02,3.64-24.92,2.42-9.89,6.25-19.32,11.48-28.28,5.22-8.96,11.85-16.7,19.88-23.24,8.02-6.53,17.64-9.8,28.84-9.8,10.08,0,19.6,3.64,28.56,10.92,8.96,7.28,14.74,15.78,17.36,25.48,8.21-11.94,17.92-22.12,29.12-30.52Z"/></g></svg>