<?xml version="1.0" encoding="UTF-8"?><svg id="Layer_2" xmlns="http://www.w3.org/2000/svg" viewBox="0 0 798.32 291.95"></svg>
    <g id="Layer_1-2">
        <g>
            <path
                d="M23.93,199.78c-5.27-4.5-9.54-9.57-12.8-15.18-3.26-5.61-5.7-11.26-7.31-16.93s-2.7-10.11-3.24-13.33c-1.08-6.42-.64-12.94,1.33-19.55,1.97-6.61,4.96-12.73,8.96-18.36,4.01-5.63,8.9-10.53,14.7-14.7,5.79-4.17,11.85-7.12,18.16-8.84,.38-6.89,2.74-14.11,7.08-21.67,4.34-7.55,9.65-14.56,15.94-21.02,6.29-6.45,13.23-11.97,20.82-16.56,7.59-4.58,14.92-7.47,21.99-8.66s14.94-1.8,23.64-1.84c8.69-.03,17.26,1.5,25.71,4.58,8.45,3.09,16.3,8.21,23.56,15.35,7.26,7.15,12.97,17.19,17.14,30.14,1.46-.46,2.88-.87,4.25-1.21,1.37-.34,2.7-.62,3.99-.84,7.28-1.23,14.02-.76,20.22,1.38,6.19,2.15,11.71,5.46,16.54,9.93,4.83,4.47,8.81,9.86,11.97,16.15,3.15,6.3,5.32,12.98,6.52,20.04,1.08,6.42,.94,12.78-.42,19.06-1.37,6.29-3.47,12.42-6.31,18.4-2.85,5.99-6.3,11.63-10.36,16.94-4.06,5.31-8.26,10.09-12.61,14.35,2.04,1.64,3.8,3.65,5.31,6.04,1.5,2.39,2.49,4.98,2.96,7.76,.58,3.43,.49,6.8-.28,10.12-.76,3.32-2.03,6.29-3.78,8.9-1.76,2.61-4.03,4.86-6.79,6.76-2.77,1.9-5.75,3.12-8.96,3.66-1.28,.22-2.7,.35-4.23,.38-1.54,.04-3.09-.03-4.66-.21,.87,7.78,.02,14.81-2.56,21.07-2.58,6.27-6.23,11.73-10.95,16.38-4.72,4.65-10.29,8.51-16.71,11.57-6.42,3.06-13.16,5.19-20.23,6.38-12.64,2.13-24.14,.82-34.52-3.92-10.38-4.74-18.95-12.16-25.72-22.25-2.68,1.11-5.02,1.89-7.04,2.34-2.02,.45-4.2,.87-6.56,1.27-4.29,.72-8.85,.72-13.71,0-4.86-.72-9.39-2.16-13.61-4.31-4.22-2.15-7.83-4.96-10.83-8.41-3.01-3.46-4.9-7.54-5.7-12.25-.94-5.57-1.6-10.79-1.98-15.68-.39-4.89-.16-10.05,.69-15.48-7.82-.66-14.37-3.24-19.64-7.75Zm93.53-46.65c1.11,2.02,1.83,3.99,2.15,5.91,.94,5.57,.27,10.42-2.01,14.54-2.28,4.13-4.61,8.27-6.99,12.41,2.25,.28,4.89,.94,7.93,1.97,3.03,1.03,5.5,2.6,7.4,4.7,.82,.97,1.55,2.05,2.2,3.26,.64,1.21,1.3,2.54,1.99,3.96,1.84-6.03,5-10.14,9.48-12.33,4.47-2.18,9.49-3.75,15.06-4.69l11.24-1.89c-1.11-2.67-2.06-4.71-2.85-6.13-.79-1.4-1.4-3.4-1.83-5.97-.79-4.71-.55-9.43,.75-14.16,1.29-4.73,2.17-9.01,2.63-12.83-3.14,2.29-6.71,4.27-10.72,5.94-4.01,1.67-8.06,2.84-12.12,3.53-.43,.07-2-.1-4.71-.53-2.71-.42-5.65-.86-8.81-1.32-3.16-.46-6.1-.9-8.81-1.32-2.71-.42-4.29-.6-4.71-.53,.72,1.64,1.63,3.47,2.74,5.48Z" />
            <path
                d="M530.31,69.21c3.8,4.23,5.7,9.39,5.7,15.47,0,3.26-.87,6.35-2.61,9.28-1.74,2.93-3.91,5.7-6.51,8.31s-5.43,5.16-8.47,7.65c-3.04,2.5-5.86,4.83-8.47,7,8.68,10.42,15.2,21.82,19.54,34.2,4.34,12.38,6.51,25.19,6.51,38.43,0,8.69-1.25,17.32-3.75,25.89-2.5,8.58-6.19,16.34-11.07,23.29-4.89,6.95-11.02,12.59-18.4,16.94-7.38,4.34-15.85,6.51-25.4,6.51-8.69,0-16.23-1.85-22.64-5.54-6.41-3.69-11.72-8.3-15.96-13.84-4.23-5.54-7.44-11.67-9.61-18.4-2.17-6.73-3.26-13.13-3.26-19.22,0-1.74,.11-3.53,.33-5.37,.21-1.84,.54-3.63,.98-5.37,1.95-1.74,4.12-4.07,6.51-7,2.39-2.93,4.61-6.03,6.68-9.28,2.06-3.26,3.8-6.4,5.21-9.45,1.41-3.04,2.12-5.54,2.12-7.49,0-4.34-.6-9.12-1.79-14.33-1.2-5.21-1.79-9.77-1.79-13.68,0-4.34,1.19-7.6,3.58-9.77,2.39-2.17,5.1-3.69,8.14-4.56,1.08-.43,2.66-1.41,4.72-2.93,2.06-1.52,3.31-3.14,3.75-4.89-.87,0-1.95,.28-3.26,.81-1.3,.54-3.91,1.79-7.82,3.75-6.08,3.26-9.88,6.46-11.4,9.61-1.52,3.15-2.28,6.24-2.28,9.28,0,3.48,.6,6.95,1.79,10.42,1.19,3.48,1.79,6.84,1.79,10.1,0,6.08-1.36,11.72-4.07,16.94-2.72,5.21-6.19,9.77-10.42,13.68-4.23,3.91-8.85,7-13.84,9.28-5,2.28-9.77,3.42-14.33,3.42-6.3,0-12.49-1.25-18.56-3.75-6.08-2.49-11.46-5.86-16.12-10.1-4.67-4.23-8.47-9.23-11.4-14.98-2.93-5.75-4.4-11.89-4.4-18.4,0-3.69,.43-7.49,1.3-11.4,.87-3.91,1.84-7.49,2.93-10.75,.87-.87,1.9-1.95,3.09-3.26,1.19-1.3,2.33-2.71,3.42-4.23,1.08-1.52,1.95-3.09,2.61-4.72,.65-1.63,.87-3.09,.65-4.4-2.17,2.39-4.51,5.21-7,8.47-2.5,3.26-5.49,4.88-8.96,4.88-3.91,0-7.33-.92-10.26-2.77-2.93-1.84-5.92-3.63-8.96-5.37,.21,2.39,1.19,4.35,2.93,5.86,1.74,1.52,3.63,2.82,5.7,3.91,2.06,1.09,4.12,1.9,6.19,2.44,2.06,.54,3.63,.81,4.72,.81-.22,3.48-.6,6.79-1.14,9.93-.54,3.15-.81,6.57-.81,10.26,0,9.12,2.55,17.7,7.65,25.73,5.1,8.04,12.32,15.09,21.66,21.17v7.17c0,6.73-2.01,13.19-6.03,19.38-4.02,6.19-9.01,11.62-14.98,16.28-5.97,4.67-12.49,8.42-19.54,11.24-7.06,2.83-13.52,4.23-19.38,4.23-5.21,0-10.42-.98-15.63-2.93s-9.88-4.61-14-7.98c-4.13-3.36-7.49-7.49-10.1-12.38-2.61-4.88-3.91-10.26-3.91-16.12,0-6.29,1.3-11.94,3.91-16.94,2.61-4.99,6.08-9.77,10.42-14.33-5-4.12-9.12-9.61-12.38-16.45s-4.89-13.73-4.89-20.68c0-3.69,.6-7.49,1.79-11.4,1.19-3.91,2.66-7.76,4.4-11.56,1.74-3.8,3.58-7.43,5.54-10.91,1.95-3.47,3.8-6.51,5.54-9.12-1.74-6.29-4.07-12.43-7-18.4-2.93-5.97-4.4-12.43-4.4-19.38,0-8.03,1.74-16.07,5.21-24.1,3.47-8.03,8.25-15.25,14.33-21.66,6.08-6.4,13.03-11.61,20.84-15.63,7.82-4.02,16.17-6.03,25.08-6.03,6.51,0,13.52,1.41,21.01,4.23,7.49,2.82,14.49,6.63,21.01,11.4,6.51,4.78,11.89,10.37,16.12,16.77,4.23,6.41,6.35,13.19,6.35,20.36l1.3,12.7c0-4.12,1.08-8.68,3.26-13.68,2.17-4.99,4.88-9.93,8.14-14.82s6.73-9.44,10.42-13.68c3.69-4.23,7.05-7.87,10.1-10.91,5.21-4.99,11.12-8.31,17.75-9.93,6.62-1.63,13.4-2.44,20.36-2.44,4.77,0,10.04,.71,15.8,2.12,5.75,1.41,11.12,3.58,16.12,6.51,4.99,2.93,9.12,6.57,12.38,10.91,3.26,4.35,4.88,9.44,4.88,15.31,0,2.17-.16,4.45-.49,6.84-.33,2.39-.76,4.67-1.3,6.84-.54,2.17-1.2,4.07-1.95,5.7-.76,1.63-1.58,2.77-2.44,3.42,3.47,3.48,7.11,7.33,10.91,11.56Z" />
            <path
                d="M755.09,224.07c1.73,5.56,2.08,11.45,1.07,17.67-1.23,7.5-4.41,14.46-9.53,20.88-5.13,6.42-10.64,11.57-16.56,15.44-8.66,4.52-17.96,8.22-27.89,11.1-9.94,2.88-19.72,3.53-29.36,1.95-3-.49-6.27-1.69-9.81-3.59-3.54-1.9-6.83-4.31-9.87-7.23-3.04-2.92-5.7-6.21-7.95-9.88-2.26-3.67-3.71-7.54-4.37-11.61-5.49,3.94-11.18,6.09-17.06,6.44-5.89,.35-11.84,.04-17.83-.94-8.57-1.41-16.17-4.74-22.78-10-6.62-5.26-12.33-11.7-17.13-19.31-4.81-7.61-8.75-16.06-11.85-25.37-3.1-9.3-5.39-18.81-6.88-28.52-1.49-9.7-2.25-19.18-2.27-28.43-.03-9.25,.58-17.61,1.81-25.12,1.79-10.93,5.29-21.19,10.49-30.79,5.2-9.6,11.39-17.82,18.57-24.68,7.17-6.85,14.89-12.02,23.17-15.51,8.27-3.48,16.26-4.59,23.98-3.33,2.36,.39,4.86,1.24,7.5,2.55,2.64,1.31,4.7,2.86,6.17,4.64-.36-1.82-1.14-3.43-2.34-4.84-1.2-1.4-2.6-2.62-4.19-3.66-1.59-1.03-3.27-1.91-5.01-2.64-1.75-.73-3.38-1.21-4.88-1.46,1.52-3.93,5.03-7.53,10.52-10.82,5.49-3.28,11.98-6.01,19.49-8.19,7.5-2.18,15.56-3.66,24.16-4.45,8.6-.79,16.76-.55,24.47,.71,9.85,1.62,19.43,4.62,28.72,9,9.29,4.39,17.38,10.06,24.27,17.02,6.89,6.96,12.07,14.96,15.54,24,3.47,9.04,4.31,19.02,2.52,29.95-.42,2.57-2.27,4.8-5.55,6.68-3.28,1.89-7.13,3.56-11.55,5.04-4.42,1.48-8.96,2.66-13.62,3.54-4.66,.89-8.56,1.52-11.69,1.88-8.36-1.37-16.66-1.02-24.92,1.03-8.26,2.06-16.06,4.68-23.4,7.88-2.03,.33-4.12,.31-6.26-.04-3.43-.56-6.56-1.95-9.38-4.18-2.83-2.22-5.71-4.45-8.64-6.7,.43,2.71,.73,5.95,.88,9.72,.15,3.77,.23,7.3,.24,10.6,0,3.3-.08,6.2-.27,8.7-.19,2.5-.3,3.86-.34,4.07-.56,3.43-1.32,7.37-2.27,11.84-.95,4.46-2.13,8.95-3.52,13.45-1.4,4.5-3.19,8.72-5.37,12.65-2.19,3.93-4.79,7.08-7.82,9.44,5.7-1.26,10.92-1.51,15.63-.74,2.78,.46,5.36,1.16,7.74,2.09,2.37,.94,4.85,1.95,7.42,3.03,2.57,1.08,5.35,2.25,8.34,3.51,2.98,1.26,6.58,2.46,10.8,3.59-4.04-2.2-7.99-4.94-11.85-8.21-3.87-3.27-7.19-6.84-9.96-10.71-2.78-3.86-4.9-8.06-6.35-12.59-1.46-4.53-1.77-9.36-.92-14.51,1.48-9,5.14-16.26,11-21.79,5.86-5.53,12.7-9.74,20.55-12.64,7.84-2.89,16.05-4.63,24.62-5.21,8.56-.58,16.17-.32,22.81,.77,7.28,1.19,14.9,3.38,22.85,6.55,7.95,3.17,15.03,7.31,21.24,12.39,6.2,5.09,11.01,11.33,14.43,18.7,3.41,7.38,4.33,15.89,2.74,25.53-.74,4.5-2.2,8.72-4.38,12.65-2.19,3.93-4.9,7.4-8.14,10.38-3.24,2.99-6.91,5.2-10.99,6.62-4.09,1.42-8.27,1.78-12.55,1.08-2.57-.42-4.42-1.55-5.55-3.38-1.13-1.84-3.45-4.8-6.96-8.9,2.33,4.56,4.36,9.63,6.09,15.19Z" />
        </g>
    </g>
</svg>