<?xml version="1.0" encoding="UTF-8"?><svg id="Layer_2" xmlns="http://www.w3.org/2000/svg" viewBox="0 0 755.89 291.95"><g id="Layer_1-2"><path d="M752.4,164.91c-3.41-7.38-8.22-13.61-14.43-18.7-6.21-5.09-13.29-9.22-21.24-12.39-7.95-3.17-15.57-5.36-22.85-6.55-6.64-1.09-14.25-1.35-22.81-.77-8.57,.58-16.77,2.32-24.62,5.21-7.85,2.9-14.7,7.11-20.55,12.64-5.86,5.53-9.52,12.79-11,21.79-.84,5.14-.54,9.98,.92,14.51,1.45,4.53,3.57,8.73,6.35,12.59,2.77,3.87,6.09,7.43,9.96,10.71,3.86,3.27,7.81,6.01,11.85,8.21-4.22-1.13-7.82-2.32-10.8-3.59-2.99-1.26-5.76-2.43-8.34-3.51-2.58-1.08-5.05-2.09-7.42-3.03-2.38-.94-4.96-1.64-7.74-2.09-4.72-.77-9.93-.52-15.63,.74,3.03-2.36,5.63-5.51,7.82-9.44,2.18-3.93,3.98-8.15,5.37-12.65,1.4-4.5,2.57-8.98,3.52-13.45,.95-4.46,1.71-8.41,2.27-11.84,.03-.21,.14-1.57,.34-4.07,.19-2.5,.28-5.4,.27-8.7-.01-3.3-.09-6.83-.24-10.6-.16-3.76-.45-7-.88-9.72,2.93,2.24,5.81,4.47,8.64,6.7,2.82,2.23,5.95,3.62,9.38,4.18,2.14,.35,4.23,.36,6.26,.04,7.34-3.2,15.15-5.82,23.4-7.88,8.26-2.06,16.57-2.4,24.92-1.03,3.14-.36,7.04-.99,11.69-1.88,4.65-.89,9.19-2.07,13.62-3.54,4.42-1.47,8.27-3.15,11.55-5.04,3.28-1.88,5.13-4.11,5.55-6.68,1.79-10.93,.95-20.91-2.52-29.95-3.47-9.04-8.65-17.04-15.54-24-6.89-6.96-14.98-12.63-24.27-17.02-9.3-4.38-18.87-7.38-28.72-9-7.71-1.26-15.87-1.5-24.47-.71-8.6,.79-16.66,2.28-24.16,4.45-7.51,2.18-14.01,4.91-19.49,8.19-5.49,3.28-9,6.89-10.52,10.82,1.5,.25,3.12,.73,4.88,1.46,1.75,.73,3.42,1.61,5.01,2.64,1.59,1.03,2.98,2.25,4.19,3.66,1.2,1.41,1.98,3.02,2.34,4.84-1.47-1.78-3.53-3.33-6.17-4.64-2.65-1.31-5.15-2.16-7.5-2.55-7.71-1.26-15.71-.15-23.98,3.33-8.28,3.49-16,8.66-23.17,15.51-7.18,6.86-13.36,15.08-18.57,24.68-5.2,9.6-8.7,19.86-10.49,30.79-.58,3.56-1.02,7.32-1.32,11.28-3.84-7.72-8.6-15.03-14.33-21.9,2.61-2.17,5.42-4.5,8.47-7,3.04-2.49,5.86-5.05,8.47-7.65s4.77-5.37,6.51-8.31c1.74-2.93,2.61-6.03,2.61-9.28,0-6.08-1.9-11.24-5.7-15.47-3.8-4.23-7.44-8.09-10.91-11.56,.86-.65,1.68-1.79,2.44-3.42,.76-1.63,1.41-3.53,1.95-5.7,.54-2.17,.98-4.45,1.3-6.84,.33-2.39,.49-4.67,.49-6.84,0-5.86-1.63-10.96-4.88-15.31-3.26-4.34-7.38-7.98-12.38-10.91-5-2.93-10.37-5.1-16.12-6.51-5.76-1.41-11.02-2.12-15.8-2.12-6.95,0-13.74,.81-20.36,2.44-6.62,1.63-12.54,4.94-17.75,9.93-3.04,3.04-6.41,6.68-10.1,10.91-3.7,4.23-7.17,8.79-10.42,13.68s-5.97,9.83-8.14,14.82c-2.17,5-3.26,9.56-3.26,13.68l-1.3-12.7c0-7.17-2.12-13.95-6.35-20.36-4.23-6.4-9.61-11.99-16.12-16.77-6.51-4.77-13.52-8.58-21.01-11.4-7.49-2.82-14.49-4.23-21.01-4.23-8.91,0-17.26,2.01-25.08,6.03-7.82,4.02-14.77,9.23-20.84,15.63-6.08,6.41-10.86,13.63-14.33,21.66-3.48,8.04-5.21,16.07-5.21,24.1,0,6.95,1.47,13.41,4.4,19.38,2.93,5.97,5.26,12.11,7,18.4-1.23,1.84-2.52,3.92-3.85,6.2-1.22-4.41-2.85-8.67-4.9-12.76-3.16-6.29-7.14-11.68-11.97-16.15-4.83-4.47-10.34-7.78-16.54-9.93-6.2-2.14-12.94-2.61-20.22-1.38-1.28,.22-2.62,.5-3.99,.84-1.38,.35-2.79,.75-4.25,1.21-4.16-12.95-9.88-22.99-17.14-30.14-7.26-7.14-15.11-12.26-23.56-15.35-8.45-3.09-17.02-4.61-25.71-4.58-8.69,.04-16.57,.65-23.64,1.84-7.07,1.19-14.4,4.08-21.99,8.66-7.6,4.58-14.54,10.1-20.82,16.56-6.29,6.46-11.6,13.46-15.94,21.02-4.34,7.56-6.7,14.79-7.08,21.67-6.31,1.73-12.37,4.68-18.16,8.84-5.79,4.17-10.69,9.07-14.7,14.7-4.01,5.63-6.99,11.75-8.96,18.36-1.97,6.61-2.41,13.12-1.33,19.55,.54,3.21,1.62,7.65,3.24,13.33,1.62,5.67,4.06,11.32,7.31,16.93,3.26,5.62,7.52,10.68,12.8,15.18,5.27,4.51,11.82,7.09,19.64,7.75-.85,5.43-1.08,10.59-.69,15.48,.38,4.89,1.05,10.12,1.98,15.68,.79,4.71,2.69,8.79,5.7,12.25,3,3.46,6.61,6.27,10.83,8.41,4.21,2.15,8.75,3.59,13.61,4.31,4.85,.72,9.42,.72,13.71,0,2.35-.4,4.54-.82,6.56-1.27,2.01-.45,4.36-1.23,7.04-2.34,6.76,10.09,15.34,17.51,25.72,22.25,10.38,4.74,21.88,6.05,34.52,3.92,7.07-1.19,13.81-3.32,20.23-6.38,6.42-3.06,11.99-6.92,16.71-11.57,4.72-4.65,8.37-10.11,10.95-16.38,2.58-6.27,3.42-13.29,2.56-21.07,1.57,.18,3.12,.25,4.66,.21,1.53-.04,2.94-.17,4.23-.38,3.21-.54,6.2-1.76,8.96-3.66,2.76-1.89,5.02-4.15,6.79-6.76,1.76-2.61,3.02-5.57,3.78-8.9,.76-3.32,.85-6.69,.28-10.12-.47-2.78-1.46-5.37-2.96-7.76-1.51-2.39-3.28-4.4-5.31-6.04,4.35-4.25,8.55-9.04,12.61-14.35,1.94-2.53,3.73-5.14,5.39-7.83,.47,1.21,.98,2.42,1.55,3.62,3.26,6.84,7.38,12.33,12.38,16.45-4.35,4.56-7.82,9.34-10.42,14.33-2.61,5-3.91,10.64-3.91,16.94,0,5.86,1.3,11.24,3.91,16.12,2.61,4.89,5.97,9.01,10.1,12.38,4.12,3.37,8.79,6.02,14,7.98s10.42,2.93,15.63,2.93c5.86,0,12.32-1.41,19.38-4.23,7.05-2.82,13.57-6.56,19.54-11.24,5.97-4.67,10.96-10.1,14.98-16.28,4.02-6.19,6.03-12.65,6.03-19.38v-7.17c-9.34-6.08-16.56-13.13-21.66-21.17-5.1-8.03-7.65-16.61-7.65-25.73,0-3.69,.27-7.11,.81-10.26,.54-3.15,.92-6.46,1.14-9.93-1.09,0-2.66-.27-4.72-.81-2.07-.54-4.13-1.35-6.19-2.44-2.07-1.08-3.96-2.39-5.7-3.91-1.74-1.52-2.72-3.47-2.93-5.86,3.04,1.74,6.03,3.53,8.96,5.37,2.93,1.85,6.35,2.77,10.26,2.77,3.47,0,6.46-1.63,8.96-4.88,2.49-3.26,4.83-6.08,7-8.47,.21,1.3,0,2.77-.65,4.4-.65,1.63-1.52,3.21-2.61,4.72-1.09,1.52-2.23,2.93-3.42,4.23-1.2,1.3-2.23,2.39-3.09,3.26-1.09,3.26-2.07,6.84-2.93,10.75-.87,3.91-1.3,7.71-1.3,11.4,0,6.51,1.47,12.65,4.4,18.4,2.93,5.76,6.73,10.75,11.4,14.98,4.67,4.23,10.04,7.6,16.12,10.1,6.08,2.5,12.26,3.75,18.56,3.75,4.56,0,9.33-1.14,14.33-3.42,4.99-2.28,9.61-5.37,13.84-9.28,4.23-3.91,7.7-8.47,10.42-13.68,2.71-5.21,4.07-10.85,4.07-16.94,0-3.26-.6-6.62-1.79-10.1-1.2-3.47-1.79-6.95-1.79-10.42,0-3.04,.76-6.13,2.28-9.28,1.52-3.14,5.32-6.35,11.4-9.61,3.91-1.95,6.51-3.2,7.82-3.75,1.3-.54,2.39-.81,3.26-.81-.44,1.74-1.68,3.37-3.75,4.89-2.07,1.52-3.64,2.5-4.72,2.93-3.04,.87-5.76,2.39-8.14,4.56-2.39,2.17-3.58,5.43-3.58,9.77,0,3.91,.6,8.47,1.79,13.68,1.19,5.21,1.79,9.99,1.79,14.33,0,1.96-.71,4.45-2.12,7.49-1.41,3.04-3.15,6.19-5.21,9.45-2.07,3.26-4.29,6.35-6.68,9.28-2.39,2.93-4.56,5.27-6.51,7-.44,1.74-.76,3.53-.98,5.37-.22,1.85-.33,3.64-.33,5.37,0,6.08,1.08,12.49,3.26,19.22,2.17,6.73,5.37,12.86,9.61,18.4,4.23,5.54,9.55,10.15,15.96,13.84,6.4,3.69,13.95,5.54,22.64,5.54,9.55,0,18.02-2.17,25.4-6.51,7.38-4.34,13.52-9.98,18.4-16.94,4.88-6.95,8.57-14.71,11.07-23.29,.43-1.48,.81-2.96,1.16-4.44,3.02,8.76,6.8,16.76,11.36,23.98,4.8,7.61,10.51,14.05,17.13,19.31,6.61,5.27,14.21,8.6,22.78,10,6,.98,11.94,1.3,17.83,.94,5.89-.36,11.57-2.5,17.06-6.44,.65,4.07,2.11,7.94,4.37,11.61,2.26,3.67,4.91,6.97,7.95,9.88,3.04,2.92,6.33,5.33,9.87,7.23,3.54,1.9,6.81,3.1,9.81,3.59,9.64,1.58,19.43,.93,29.36-1.95,9.93-2.88,19.23-6.58,27.89-11.1,5.91-3.87,11.43-9.02,16.56-15.44,5.12-6.42,8.3-13.38,9.53-20.88,1.02-6.21,.66-12.1-1.07-17.67-1.73-5.56-3.76-10.63-6.09-15.19,3.51,4.1,5.82,7.06,6.96,8.9,1.13,1.83,2.98,2.96,5.55,3.39,4.28,.7,8.47,.35,12.55-1.08,4.08-1.42,7.74-3.63,10.99-6.62,3.24-2.99,5.95-6.45,8.14-10.38,2.18-3.93,3.65-8.15,4.38-12.65,1.58-9.64,.67-18.15-2.74-25.53Zm-597.73,17.96c-5.57,.94-10.59,2.5-15.06,4.69-4.48,2.19-7.64,6.3-9.48,12.33-.68-1.42-1.35-2.75-1.99-3.96-.65-1.21-1.38-2.3-2.2-3.26-1.9-2.1-4.36-3.67-7.4-4.7-3.04-1.03-5.68-1.68-7.93-1.97,2.38-4.14,4.71-8.28,6.99-12.41,2.28-4.13,2.95-8.97,2.01-14.54-.32-1.93-1.04-3.9-2.15-5.91-1.11-2.01-2.02-3.84-2.74-5.48,.43-.07,2,.11,4.71,.53,2.71,.42,5.65,.86,8.81,1.32,3.16,.46,6.1,.9,8.81,1.32,2.71,.42,4.28,.6,4.71,.53,4.06-.69,8.11-1.86,12.12-3.53,4.01-1.67,7.59-3.64,10.72-5.94-.46,3.82-1.33,8.1-2.63,12.83-1.3,4.73-1.54,9.46-.75,14.16,.43,2.57,1.04,4.56,1.83,5.97,.78,1.41,1.74,3.45,2.85,6.13l-11.24,1.9Z"/></g></svg>